<svg width="95" height="95" viewBox="0 0 95 95" fill="none" xmlns="http://www.w3.org/2000/svg">
<g clip-path="url(#clip0_4356_284)">
<path d="M0 23.74L23.74 47.48L47.48 23.74L23.74 0L0 23.74ZM30.75 16.72C34.63 20.6 34.62 26.88 30.75 30.75C26.88 34.62 20.59 34.63 16.72 30.75C12.85 26.87 12.85 20.59 16.72 16.72C20.59 12.85 26.88 12.85 30.75 16.72Z" fill="#3B2314"/>
<path d="M21.8204 21.8302C20.7604 22.8902 20.7604 24.6002 21.8204 25.6602C22.8804 26.7202 24.5904 26.7202 25.6404 25.6602C26.6904 24.6002 26.7004 22.8902 25.6404 21.8302C24.5804 20.7702 22.8704 20.7702 21.8204 21.8302Z" fill="#3B2314"/>
<path d="M47.4805 23.74L71.2205 47.48L94.9605 23.74L71.2305 0L47.4905 23.74H47.4805ZM73.6605 23.69V13.82H81.1505V23.74C81.1505 29.22 76.7105 33.66 71.2305 33.66C65.7505 33.66 61.3105 29.22 61.3105 23.74V13.82H68.7105V23.79C68.7105 25.13 69.8005 26.22 71.1405 26.22C72.4805 26.22 73.6705 25.09 73.6705 23.69H73.6605Z" fill="#3B2314"/>
<path d="M0 71.2302L23.74 94.9702L47.48 71.2302L23.74 47.4902L0 71.2302ZM33.67 68.7502H28.71V81.1502H18.79V68.7502H13.83V61.3102H33.67V68.7502Z" fill="#3B2314"/>
<path d="M71.2302 47.4805L47.4902 71.2205L71.2302 94.9605L94.9702 71.2205L71.2302 47.4805ZM81.1502 68.7405V73.7005H71.2302V76.1805H81.1502V81.1405H61.3102V61.3005H81.1502V66.2605H71.2302V68.7405H81.1502Z" fill="#3B2314"/>
</g>
<defs>
<clipPath id="clip0_4356_284">
<rect width="94.97" height="94.97" fill="white"/>
</clipPath>
</defs>
</svg>
