<svg width="530" height="125" viewBox="0 0 530 125" fill="none" xmlns="http://www.w3.org/2000/svg">
<g clip-path="url(#clip0_4356_254)">
<path d="M3.09 124.34L1.02 124.54C0.6 124.58 0 123.21 0 122.76V2C0 0.76 0.88 0.09 2.15 0H529.93L529.89 124.34H3.09ZM231.57 42.35C236.12 43.49 240.38 42.43 243.77 39.43C246.82 36.74 248.63 31.98 247.68 27.97C246.33 22.23 242.67 18.35 237.04 17.2C231.41 16.05 226.43 19.76 223.6 24.14C220.57 28.82 222.48 40.06 231.57 42.34V42.35ZM264.64 18.54L264.38 34.74C264.34 37.07 261.98 38.41 260.37 38.22C258.39 37.98 257.16 36.59 257.14 34.35L257.04 18.57C256.09 17.64 253.79 17.51 252.99 18.37L253.21 37.79C253.25 41.37 257.63 42.51 260.47 42.63C264.21 42.78 268.31 40.95 268.74 36.56C269.3 30.84 269.02 24.57 268.86 18.57C268.6 17.52 264.67 17.47 264.65 18.55L264.64 18.54ZM280.77 34.03C280.86 31.9 281.04 30.03 280.68 27.85C280.36 25.89 280.52 22.92 282.5 22.09C283.3 21.76 284.99 21.73 284.98 21.05L284.96 17.89L273.03 17.87C272.08 18.34 271.67 21.13 272.75 21.44C274.56 21.96 276.33 22.84 276.35 24.93L276.49 41.81C276.94 42.86 280.38 42.73 280.43 41.54L280.75 34.02L280.77 34.03ZM299.5 31.41C300.7 31.4 302.12 30.68 302.2 29.75C302.28 28.82 301.93 27 301.08 26.97L294.92 26.76C293.91 26.73 293.28 24.63 293.5 23.64C293.72 22.65 295.2 21.95 296.41 21.93L302.01 21.84C302.09 20.5 302.02 18.9 301.77 17.85L288.9 17.95V42.38L301.65 42.33C302.28 40.99 302.32 38.73 301.43 38.04L294.2 37.68C293.35 35.75 293.42 33.35 293.73 31.47L299.51 31.4L299.5 31.41ZM272.32 53.65C271.23 52.27 269.95 50.78 268.3 50C265.02 48.45 261.2 48.48 257.47 49.6C252.85 50.99 250.05 56.4 250.13 61.01C250.21 65.62 253.32 70.42 257.81 72.13C264.31 74.6 271.3 71.77 273.76 65.06C274.4 63.32 274.99 57.04 272.33 53.65H272.32ZM297.97 107.52C303.35 107.73 308.29 105.18 310.49 99.77C311.63 96.96 311.7 92.01 310.39 89.22C307.54 83.19 301 80.51 295.03 82.33C293.66 82.75 292.36 83.92 291.31 84.65C285.12 88.95 285.15 95.68 288.33 101.98C289.6 104.51 294.41 107.38 297.97 107.52ZM379.47 107.57C384.72 107.21 389.74 102.5 390.48 96.81C391.14 91.7 389.47 86.97 385.37 84.1C381.67 81.51 376 80.67 372.01 83.37C369.96 84.76 367.88 86.95 366.62 88.99C365.03 91.58 365.43 94.99 365.96 97.94C367.09 104.27 373.27 108 379.48 107.57H379.47ZM139.17 94.01C139.91 96.65 140.36 98.13 140.74 100.32L141.78 106.28C141.96 107.34 145.51 107.38 145.78 106.31C146.48 103.57 145.05 100.92 144.77 98.43C144.38 94.93 143.9 91.81 143.19 88.33C142.84 86.61 143.17 83.83 141.85 82.67C141.13 82.04 138.37 82.15 137.76 82.87C137.15 83.59 136.75 85.14 136.33 86.36L134.64 91.28C134.11 92.81 133.54 95.03 133.12 96.61C130.83 97.67 130.26 94.79 129.73 93.17L127.05 84.94C126.37 82.87 125.46 81.9 123.14 82.33C120.04 82.9 121.3 86.89 120.02 92.02C119.4 94.49 119.22 96.83 118.75 99.39L117.47 106.3C118.24 107.28 121.43 107.44 121.64 106.37L122.58 101.66L124.06 94.11C125.76 95.72 126.75 97.51 127.39 99.59L128.9 104.5C129.35 105.97 130.44 107.43 131.57 107.36C134.53 107.18 134.19 106 136.01 101.01C136.91 98.53 137.09 96.56 139.17 94.02V94.01ZM165.44 102.02L166.63 104.76C167.06 105.76 167.95 106.89 168.75 107.08C169.77 107.32 171.62 106.86 172.1 105.87L167.09 92.96L165.45 88.68L163.18 82.68C161.96 82.05 159.17 82.23 157.97 82.87L150.45 102.43C149.9 103.87 149.4 105.33 149.59 106.82C150.64 107.15 152.89 107.14 153.6 106.57C154.27 105.45 154.77 102.44 156.17 102.27C159.25 101.9 162.22 102 165.44 102.01V102.02ZM194.76 92.27C194.38 88.4 192.33 84.48 188.43 83.47C184.28 82.39 180.21 82.11 175.99 82.48L175.61 88.02L175.54 106.87C179.28 107.08 182.77 107.25 186.12 106.72C193.83 105.48 195.41 98.96 194.76 92.28V92.27ZM212.96 95.64C213.96 95.19 213.5 91.67 212.4 91.6L205.59 91.19C204.69 91.14 204.21 88.61 204.74 87.94C207.01 85.07 209.53 87.18 213.12 86.08C213.74 85.35 213.27 82.92 212.39 82.49L200.71 82.36C200.42 83.33 199.95 84.66 199.96 85.34L200.07 106.96L212.87 107C213.47 106.18 213.69 104.15 213.22 103.43C212.83 102.83 211.41 102.53 210.44 102.47L205.28 102.13C204.21 100.42 204.28 97.67 205 96.15L212.97 95.64H212.96ZM231.48 106.2L231.56 83.37C231.56 82.61 229.5 82.12 228.81 82.29C228.12 82.46 227.01 83.55 227.02 84.43L227.08 106.59C228.06 107.28 231.24 107.27 231.48 106.2ZM257.05 106.11L257.08 84.44C257.08 83.14 255.78 82.34 254.68 82.26C253.77 82.2 252.62 83.41 252.61 84.7L252.55 94.55C252.49 95.25 250.33 95.61 249.96 94.98C248.52 92.52 246.7 89.81 245.05 87.47C243.49 85.26 241.95 80.85 237.95 82.52C237.35 82.77 236.93 84.11 236.93 84.97L236.97 106.3C237.71 107.39 240.8 107.36 241.44 106.28L241.57 93.43C243.23 93.4 244.26 94.42 245.09 95.75C247.46 99.49 249.73 102.97 252.37 106.62C253.03 107.54 256.29 107.22 257.05 106.11ZM283.02 106.94C283.88 106.94 284.38 104.43 283.94 103.7C282.96 102.1 277.06 103.6 277.04 100.94L276.93 82.52C275.79 82.41 274.22 82.34 273.4 82.53C272.67 82.7 272.44 84.54 272.45 85.39L272.57 100.41L273 107.04L283.02 106.94ZM329.1 103.03L331.47 106.53C332.14 107.52 334.9 107.16 336 106.24L336.03 83.16C335.37 82.44 333.6 82.12 332.84 82.42C330.61 83.29 332.33 88.82 331.77 94.52C331.72 95.05 330.11 95.77 329.75 95.45C329.39 95.13 328.92 94.56 328.51 93.94L321.18 82.68C320.05 82.31 317.78 82.24 316.82 82.61C315.68 87.56 315.79 93.31 316.13 98.38L316.64 105.87C316.69 106.66 318.04 107.31 318.78 107.26C319.42 107.22 320.52 106.18 320.55 105.5L320.85 99.39C320.96 97.22 320.31 95.48 321.35 93.13C323.25 93.99 323.93 95.06 324.87 96.51L329.12 103.03H329.1ZM361.29 97.08C361.58 91.11 360.85 84.97 354 83.22C350.75 82.39 344.57 81.92 342.65 82.66C342.27 82.81 341.95 83.98 341.95 84.57L341.98 106.85C345.97 107.03 349.64 107.36 353.03 106.67C358.08 105.63 361.06 101.83 361.29 97.09V97.08ZM414.46 106.08L414.41 83.03C414.09 81.86 410.05 81.92 410.03 83.55L409.87 94.41C409.87 94.73 409.61 95.43 409.5 95.69C409.39 95.95 408.18 95.87 407.92 95.48L400.39 84.19C399.65 83.08 398.62 82.41 397.74 82.26C397.06 82.15 395.27 82.82 395.06 83.51V106.71C396.34 107.55 398.45 107.21 399.51 106.27L399.58 94.93C399.58 94.39 400.5 93.27 401.01 93.43L407.97 103.82C408.79 105.04 409.55 106.39 410.45 106.87C411.35 107.35 413.77 106.97 414.44 106.09L414.46 106.08Z" fill="#3B2314"/>
<path d="M139.17 94.0095C137.09 96.5595 136.91 98.5195 136.01 101C134.19 105.99 134.53 107.179 131.57 107.349C130.45 107.419 129.35 105.959 128.9 104.489L127.39 99.5795C126.75 97.4995 125.77 95.7195 124.06 94.0995L122.58 101.65L121.64 106.36C121.43 107.42 118.24 107.27 117.47 106.29L118.75 99.3795C119.22 96.8195 119.41 94.4795 120.02 92.0095C121.3 86.8695 120.04 82.8895 123.14 82.3195C125.46 81.8995 126.37 82.8595 127.05 84.9295L129.73 93.1595C130.26 94.7795 130.83 97.6595 133.12 96.5995C133.55 95.0195 134.12 92.8095 134.64 91.2695L136.33 86.3495C136.75 85.1295 137.15 83.5795 137.76 82.8595C138.37 82.1395 141.13 82.0295 141.85 82.6595C143.17 83.8195 142.84 86.5995 143.19 88.3195C143.9 91.7995 144.37 94.9195 144.77 98.4195C145.05 100.919 146.48 103.56 145.78 106.3C145.5 107.38 141.96 107.339 141.78 106.269L140.74 100.309C140.36 98.1195 139.92 96.6395 139.17 93.9995V94.0095Z" fill="white"/>
<path d="M257.05 106.11C256.29 107.22 253.03 107.54 252.37 106.62C249.74 102.97 247.46 99.4896 245.09 95.7496C244.25 94.4296 243.22 93.3996 241.57 93.4296L241.44 106.28C240.79 107.35 237.71 107.38 236.97 106.3L236.93 84.9696C236.93 84.1096 237.35 82.7696 237.95 82.5196C241.95 80.8496 243.49 85.2596 245.05 87.4696C246.7 89.8096 248.52 92.5196 249.96 94.9796C250.33 95.6196 252.49 95.2496 252.55 94.5496L252.61 84.6996C252.61 83.4096 253.76 82.1996 254.68 82.2596C255.78 82.3396 257.08 83.1396 257.08 84.4396L257.05 106.11Z" fill="white"/>
<path d="M414.46 106.08C413.79 106.97 411.35 107.33 410.47 106.86C409.59 106.39 408.81 105.04 407.99 103.81L401.03 93.4201C400.52 93.2601 399.6 94.3901 399.6 94.9201L399.53 106.26C398.47 107.19 396.36 107.53 395.09 106.7V83.5001C395.28 82.8101 397.08 82.1401 397.76 82.2501C398.64 82.3901 399.66 83.0601 400.41 84.1801L407.94 95.4701C408.2 95.8601 409.42 95.9401 409.52 95.6801C409.62 95.4201 409.88 94.7201 409.89 94.4001L410.05 83.5401C410.07 81.9101 414.12 81.8501 414.43 83.0201L414.48 106.07L414.46 106.08Z" fill="white"/>
<path d="M329.1 103.03L324.85 96.5105C323.91 95.0605 323.23 94.0005 321.33 93.1305C320.29 95.4805 320.93 97.2205 320.83 99.3905L320.53 105.5C320.5 106.18 319.4 107.22 318.76 107.26C318.01 107.31 316.67 106.65 316.62 105.87L316.11 98.3805C315.77 93.3205 315.65 87.5605 316.8 82.6105C317.76 82.2405 320.04 82.3105 321.16 82.6805L328.49 93.9405C328.9 94.5705 329.37 95.1405 329.73 95.4505C330.09 95.7605 331.7 95.0505 331.75 94.5205C332.31 88.8205 330.59 83.2805 332.82 82.4205C333.58 82.1305 335.35 82.4405 336.01 83.1605L335.98 106.24C334.88 107.16 332.12 107.52 331.45 106.53L329.08 103.03H329.1Z" fill="white"/>
<path d="M231.57 42.3509C222.48 40.0609 220.57 28.8309 223.6 24.1509C226.44 19.7609 231.27 16.0309 237.04 17.2109C242.81 18.3909 246.33 22.2409 247.68 27.9809C248.62 31.9909 246.82 36.7509 243.77 39.4409C240.37 42.4309 236.11 43.5009 231.57 42.3609V42.3509ZM237.85 37.8509C240.57 36.7809 242.61 33.9909 243.11 31.1409C243.61 28.2909 241.73 24.6509 239.53 23.1309C235.82 20.5609 232.03 21.1509 229.38 24.3109C226.89 27.2809 226.01 31.2309 228.2 34.4509C230.15 37.3109 233.94 39.4009 237.85 37.8609V37.8509Z" fill="white"/>
<path d="M379.47 107.569C373.26 107.999 367.08 104.269 365.95 97.9391C365.43 94.9891 365.03 91.5791 366.61 88.9891C367.86 86.9391 369.94 84.7591 372 83.3691C375.99 80.6591 381.66 81.5091 385.36 84.0991C389.46 86.9691 391.13 91.6991 390.47 96.8091C389.74 102.499 384.72 107.209 379.46 107.569H379.47ZM385.57 97.4491C386.55 93.8791 385.79 91.1091 383.66 88.9491C381.53 86.7891 378.78 85.5591 375.49 86.6191C373.25 87.3491 371.41 89.7291 370.63 91.9391C369.06 96.3491 371.17 100.829 375.2 102.419C379.23 104.009 384.35 101.849 385.56 97.4391L385.57 97.4491Z" fill="white"/>
<path d="M297.97 107.52C294.41 107.38 289.6 104.51 288.33 101.98C285.16 95.6795 285.13 88.9495 291.31 84.6495C292.36 83.9195 293.66 82.7495 295.03 82.3295C301 80.5095 307.54 83.1895 310.39 89.2195C311.71 92.0095 311.63 96.9595 310.49 99.7695C308.3 105.18 303.35 107.73 297.97 107.52ZM302.04 102.25C306.5 100.13 307.97 95.1695 306.21 91.3595C304.35 87.3295 300.13 85.0595 295.91 86.8695C291.69 88.6795 289.87 93.4295 291.49 97.7095C293 101.69 297.76 104.28 302.04 102.25Z" fill="white"/>
<path d="M361.29 97.08C361.06 101.82 358.09 105.62 353.03 106.66C349.64 107.36 345.97 107.02 341.98 106.84L341.95 84.56C341.95 83.98 342.27 82.8 342.65 82.65C344.57 81.91 350.76 82.38 354 83.21C360.85 84.96 361.58 91.1 361.29 97.07V97.08ZM356.22 98.67C357.16 96.1 357.07 93.22 356.29 90.98C355.35 88.28 349.89 85.94 348.19 86.72C347.59 86.99 346.51 88.18 346.53 89.05L346.75 101.63C349.8 103.53 354.94 102.2 356.23 98.67H356.22Z" fill="white"/>
<path d="M194.76 92.2691C195.41 98.9391 193.83 105.469 186.12 106.709C182.77 107.249 179.28 107.069 175.54 106.859L175.61 88.0091L175.99 82.4691C180.21 82.0991 184.28 82.3791 188.43 83.4591C192.33 84.4691 194.38 88.3891 194.76 92.2591V92.2691ZM183.08 102.429C187.75 102.839 189.72 99.9491 190.3 96.2691C191.04 91.5791 189 88.0691 184.26 87.0391C183.59 86.8891 182.13 86.3191 181.49 86.5291C180.85 86.7391 180.05 88.1291 180.05 88.8691L180.02 99.9791C180.02 100.539 180.33 101.679 180.74 101.949C181.15 102.219 182.29 102.359 183.07 102.419L183.08 102.429Z" fill="white"/>
<path d="M165.44 102.02C162.22 102.02 159.25 101.91 156.17 102.28C154.77 102.45 154.27 105.45 153.6 106.58C152.88 107.15 150.64 107.16 149.59 106.83C149.4 105.34 149.9 103.88 150.45 102.44L157.97 82.88C159.18 82.24 161.97 82.0601 163.18 82.6901L165.45 88.6901L167.09 92.9701L172.1 105.88C171.62 106.87 169.77 107.33 168.75 107.09C167.95 106.9 167.06 105.77 166.63 104.77L165.44 102.03V102.02ZM162.53 96.7801C163.34 95.6501 162.74 92.9201 162.02 91.9601C161.65 91.4601 159.78 91.4201 159.35 91.7501L158.02 96.8301C159.24 97.4701 161.71 97.9401 162.54 96.7801H162.53Z" fill="white"/>
<path d="M212.96 95.6394L204.99 96.1494C204.27 97.6594 204.2 100.419 205.27 102.129L210.43 102.469C211.4 102.529 212.81 102.829 213.21 103.429C213.69 104.159 213.46 106.189 212.86 106.999L200.06 106.959L199.95 85.3394C199.95 84.6594 200.41 83.3294 200.7 82.3594L212.38 82.4894C213.26 82.9194 213.73 85.3494 213.11 86.0794C209.52 87.1694 207 85.0694 204.73 87.9394C204.2 88.6094 204.68 91.1394 205.58 91.1894L212.39 91.5994C213.49 91.6694 213.95 95.1894 212.95 95.6394H212.96Z" fill="white"/>
<path d="M264.64 18.5409C264.66 17.4609 268.59 17.5109 268.85 18.5609C269.01 24.5609 269.3 30.8309 268.73 36.5509C268.3 40.9409 264.2 42.7709 260.46 42.6209C257.62 42.5009 253.24 41.3609 253.2 37.7809L252.98 18.3609C253.78 17.5009 256.08 17.6309 257.03 18.5609L257.13 34.3409C257.14 36.5909 258.38 37.9709 260.36 38.2109C261.97 38.4109 264.33 37.0609 264.37 34.7309L264.63 18.5309L264.64 18.5409Z" fill="white"/>
<path d="M299.5 31.4094L293.72 31.4794C293.41 33.3694 293.34 35.7694 294.19 37.6894L301.42 38.0494C302.31 38.7394 302.27 40.9994 301.64 42.3394L288.9 42.3894V17.9594L301.76 17.8594C302.01 18.9094 302.08 20.5094 302 21.8494L296.4 21.9394C295.18 21.9594 293.7 22.6794 293.49 23.6494C293.28 24.6194 293.91 26.7394 294.91 26.7694L301.07 26.9794C301.92 27.0094 302.27 28.8694 302.19 29.7594C302.11 30.6494 300.69 31.3994 299.49 31.4194L299.5 31.4094Z" fill="white"/>
<path d="M280.77 34.0309L280.45 41.5509C280.4 42.7309 276.95 42.8709 276.51 41.8209L276.37 24.9409C276.35 22.8509 274.58 21.9609 272.77 21.4509C271.69 21.1409 272.1 18.3509 273.05 17.8809L284.98 17.9009L285 21.0609C285 21.7309 283.32 21.7609 282.52 22.1009C280.53 22.9309 280.37 25.9009 280.7 27.8609C281.06 30.0409 280.88 31.9009 280.79 34.0409L280.77 34.0309Z" fill="white"/>
<path d="M283.02 106.941L273 107.041L272.57 100.411L272.45 85.3907C272.45 84.5407 272.68 82.7007 273.4 82.5307C274.21 82.3407 275.79 82.4107 276.93 82.5207L277.04 100.941C277.06 103.611 282.95 102.111 283.94 103.701C284.39 104.431 283.88 106.931 283.02 106.941Z" fill="white"/>
<path d="M272.32 53.6491C274.98 57.0291 274.39 63.3191 273.75 65.0591C271.29 71.7791 264.3 74.6091 257.8 72.1291C253.31 70.4191 250.2 65.7791 250.12 61.0091C250.04 56.2391 252.84 50.9891 257.46 49.5991C261.19 48.4691 265.01 48.4491 268.29 49.9991C269.94 50.7791 271.22 52.2691 272.31 53.6491H272.32ZM254.66 67.5291C257.98 71.6791 263.42 72.0191 267.56 69.7191C271.7 67.4191 273.61 62.5691 272.21 57.3391C271.39 54.2591 268.13 51.6391 265.16 50.8291C261.62 49.8491 259.21 50.3991 256.3 52.3691C253.62 54.1791 252.08 57.1491 251.78 60.7391C251.6 62.9991 253.02 65.4791 254.66 67.5291Z" fill="white"/>
<path d="M231.48 106.2C231.24 107.27 228.06 107.28 227.08 106.59L227.02 84.4301C227.02 83.5501 228.12 82.4601 228.81 82.2901C229.5 82.1201 231.56 82.6001 231.56 83.3701L231.48 106.2Z" fill="white"/>
<path d="M237.85 37.8495C233.94 39.3895 230.15 37.2995 228.2 34.4395C226.01 31.2195 226.9 27.2695 229.38 24.2995C232.02 21.1395 235.82 20.5495 239.53 23.1195C241.72 24.6395 243.61 28.2495 243.11 31.1295C242.61 34.0095 240.57 36.7695 237.85 37.8395V37.8495Z" fill="#3B2314"/>
<path d="M385.57 97.4508C384.35 101.861 379.24 104.031 375.21 102.431C371.18 100.831 369.07 96.3608 370.64 91.9508C371.43 89.7408 373.26 87.3508 375.5 86.6308C378.78 85.5608 381.59 86.8608 383.67 88.9608C385.75 91.0608 386.56 93.8908 385.58 97.4608L385.57 97.4508Z" fill="#3B2314"/>
<path d="M302.04 102.25C297.77 104.28 293 101.69 291.49 97.7095C289.87 93.4295 291.57 88.7195 295.91 86.8695C300.25 85.0195 304.35 87.3295 306.21 91.3595C307.98 95.1795 306.5 100.13 302.04 102.25Z" fill="#3B2314"/>
<path d="M356.22 98.6705C354.93 102.201 349.8 103.53 346.74 101.63L346.52 89.0505C346.5 88.1805 347.59 86.9905 348.18 86.7205C349.88 85.9405 355.34 88.2805 356.28 90.9805C357.06 93.2205 357.15 96.1105 356.21 98.6705H356.22Z" fill="#3B2314"/>
<path d="M183.08 102.43C182.3 102.36 181.16 102.22 180.75 101.96C180.34 101.7 180.02 100.55 180.03 99.99L180.06 88.88C180.06 88.15 180.86 86.7501 181.5 86.5401C182.14 86.3301 183.6 86.9001 184.27 87.0501C189.02 88.0801 191.06 91.59 190.31 96.28C189.73 99.96 187.75 102.85 183.09 102.44L183.08 102.43Z" fill="#3B2314"/>
<path d="M162.53 96.7809C161.7 97.9409 159.24 97.4709 158.01 96.8309L159.34 91.7509C159.78 91.4309 161.64 91.4709 162.01 91.9609C162.73 92.9209 163.33 95.6509 162.52 96.7809H162.53Z" fill="#3B2314"/>
<path d="M254.66 67.5294C253.02 65.4794 251.59 62.9894 251.78 60.7394C252.07 57.1394 253.62 54.1794 256.3 52.3694C259.21 50.3994 261.62 49.8594 265.16 50.8294C268.13 51.6494 271.39 54.2594 272.21 57.3394C273.6 62.5694 271.89 67.3194 267.56 69.7194C263.23 72.1194 257.98 71.6694 254.66 67.5294ZM266.68 66.8594C269.67 64.1994 265.07 63.1294 267.15 59.4894C267.9 58.1894 267.85 54.8694 265.81 54.6094C263.49 54.3094 261.17 54.2094 258.63 54.0194C257.22 56.5294 257.48 59.1194 257.84 61.9094C258.03 63.3494 256.33 65.6294 258.7 66.6294C259.22 66.2194 259.61 64.4594 259.71 63.3494C259.81 62.3194 262.81 61.5794 263.52 62.3494C264.7 63.6294 265.44 64.9894 266.68 66.8494V66.8594Z" fill="#3B2314"/>
<path d="M266.68 66.8593C265.44 64.9993 264.7 63.6293 263.52 62.3593C262.81 61.5893 259.81 62.3293 259.71 63.3593C259.6 64.4693 259.21 66.2293 258.7 66.6393C256.34 65.6393 258.03 63.3593 257.84 61.9193C257.48 59.1293 257.22 56.5393 258.63 54.0293C261.17 54.2193 263.49 54.3193 265.81 54.6193C267.84 54.8793 267.89 58.1993 267.15 59.4993C265.07 63.1393 269.67 64.2093 266.68 66.8693V66.8593ZM261.96 60.4493C263.84 60.7293 264.93 59.2793 264.96 57.6193C264.99 56.1393 263.27 55.3293 261.51 55.5393C260.07 55.7093 259.32 56.9093 259.5 58.3793C259.57 58.9993 259.63 60.0993 260.04 60.1593L261.97 60.4493H261.96Z" fill="white"/>
<path d="M261.96 60.4509L260.03 60.1609C259.63 60.1009 259.57 59.0009 259.49 58.3809C259.31 56.9209 260.06 55.7209 261.5 55.5409C263.26 55.3309 264.99 56.1309 264.95 57.6209C264.91 59.2809 263.83 60.7309 261.95 60.4509H261.96Z" fill="#3B2314"/>
</g>
<defs>
<clipPath id="clip0_4356_254">
<rect width="529.93" height="124.54" fill="white"/>
</clipPath>
</defs>
</svg>
