<?xml version="1.0" encoding="UTF-8"?>
<svg id="Layer_1" xmlns="http://www.w3.org/2000/svg" version="1.1" viewBox="0 0 1298 578">
  <!-- Generator: Adobe Illustrator 30.3.0, SVG Export Plug-In . SVG Version: 2.1.3 Build 182)  -->
  <defs>
    <style>
      .st0 {
        fill: #3b2314;
      }

      .st1 {
        fill: #faf8f5;
      }
    </style>
  </defs>
  <path class="st1" d="M1298,303h-1.1c-2.9-.2-2.5-4.2,0-5h1.1v5Z"/>
  <path class="st0" d="M1296.9,298c.3,1.2,0,3.8,0,5v8.8c-.1,0-.3,14.9-.3,14.9l-1,27.9c-.2,4.8-.7,8.7-.3,13.4l.9,10-.7,14.1c0,1.8-.4,5.5.3,7.1,1.4,3.3.5,5.7.4,8.9l-.5,33.3-.9,19.5-2.9,33.3c-.2,2,1.5,5.3-.8,6.9,2.3,3.8.5,7.4-.5,11.5l-3.2,12.7c-.8,3.1-1.2,5.2-3.1,8.4l-.4,10.1c-2.3,6.4-8.1,6.5-13.9,6.5s-8.3,2.1-12-1.5c-8.5,4.1-17.2,1.4-26,1.6l-31.3.6-15.8-.3c-6.3-.1-11.7-.1-18.1,0h-10.9c0,.1-18.5.1-18.5.1l-26.5.6c-7.5.2-14.3,1.8-21.9.6l-10.1.6h-22.5c0,0-24.5-.5-24.5-.5l-8-.2c-5.4-.2-10.1-.1-15.3-.3-7.9-.2-15.5.4-23.5.2l-8.5-.2-11.6.4-15.9-.3-7.4,1.2c-7.6-1.3-15-.3-22.6-.2h-13.2c0,0-23.9-.3-23.9-.3l-26.9,1.1h-10.9c-4.8,0-8.5.4-13.3,0l-11-.8c-3.8-.3-8.4-.8-12,0s-6.9.6-11,.6h-7.8c-5.4.2-9.7-.5-14.7-.6l-48.5-.4-29.8-.7-7.7-.2c-11.2-.4-19.2,1.4-27.8.7l-10.3-.8c-3.8-.3-5.9-.3-10-.2l-18.8.2c-4.3,1.3-7.4,0-11.3,0h-10.9c-7.8,0-16.2-.2-22.2.1l-9.6.5c-3.8-1.5-5.8-.4-9.4-.3l-13.6.7c-3.4.2-6.7-.1-9.7.8-6.8-.6-17.1.8-23.3-.1s-7.3.1-11.5.1-12.3-3-18.5,0-7.3-.6-10.3-.7l-21.9-.3-13.5-.4c-4.3-.1-8.3,2.4-12.1-.9-2.5,2-5.6,1.3-8.3,1.4-6.2.3-11.9,1.2-18.1-.2s-10.6.8-15.9.6-13.1-1.7-19.7.7-4.6-.9-6.8-.8l-16.1.8c-4.4.2-9.8-1.6-14-.7-6.5,1.4-12,1.4-18.8.4s-11.7,2.3-16.9.9-5.5-1.7-9.2-.4-7.5.4-11.1.7c-11.8,1-23.1.7-34.8.3-4.4-.2-8.3,1.8-13,.8s-18.5.5-30.1.4h-12.6c-8.7-.2-17,0-25.9-.7-3.2-.2-5.8,1-9.1-1.4l-8,1.8c-6.4-.7-12.6-1.4-18.9.1-3.4.8-5.8-1.4-8.3-2.3-6.8,0-13.5,2.2-20.4.2l-10.1-1.1c-4.1-.4-7.5.2-11.4,0-8.5-.5-16.3-.6-24.9-.7s-6.6-2.8-10.4-1.2-7.1.2-11.2-1-9.2.5-11.6-2.2c-1.6-7.1,6.3-6.3,11.5-12.9-2-1.6-5.2-.6-7.7-.8-2.1-1-3.7-3.4-5.2-4.9l1.5-5.8-.6-10.8c-.3-4.3-1.4-10.5.3-16-.9-3.9-2.5-7.7-1.5-12.3s-1.1-6.5-1.1-9.1c.2-6.4-.6-12.3-.5-18.8v-10.2s-.3-14.9-.3-14.9c-2.3-13.1-2-25.6-2.2-38.9s-1.9-5.9-.7-8.8.3-6.8.4-10.1l.7-17.6c2.6-1.6,4.8-2.2,7.6-2.8-1.2-3-5.7-1.1-7.7-3.4s-1.4-2.8-.9-4c1.4-3.2-.3-5.4,0-8.5l1.2-16,.8-11.8c-.7-4.8-1.6-9.9.6-14.5-1.4-2-1.1-4.2-.9-6.5l1.6-17c.3-3.5.5-6.7.7-10.2.4-5.4,1.3-10.5,1.5-16.2l.3-11.8c0,1.1,1.8-9.1,2.7-18.2l.7-6.4c.2-1.6-.7-2.9.2-4.1s1.9-1,2.8-1.6c.1-.6-.3-2,0-2.6s1.3-.8,1.7-1.1c2.1-2.8,8.3-1.9,10.9,0,1.5-.1,2.3,1.1,1,2.2,1,.2,2,.1,3.1-.2-2.1-.7-3.5-2-4.2-3.7-1.7,1.7-4.1.8-3.9-2-.7-3.7.2-3.7,3.3-2.4-.2-2.3,1.6-2.2,1.9,0,1.2-2.5,1.3-2.6,2.2,0,1.5-.7,2.9.9,3.8,2.1l.7-1.1c3,.8,5.8,2.1,8.5,3.9.5-.5.5-1.1,0-1.6-2.5.4-4.5-2.2-5.3-4.4-.9-.2-.9-.5,0-.8.2-1.4-.1-2.4-.9-3.1-2.6,1-3.3-1.2-.9-2.7,3.3-1.3,7.8-1.9,11.8-1,4.8,1.1,8.6.1,13.2,0s10.6,1.4,16,.3,9.2-.4,13.7-.3h11.4c0,0,15.3,0,15.3,0l25.4-.5,19.2.3c8.1.1,15.8-.8,23.9,1.1,4.2-2.8,8.5-1.5,13.1-1.5,4.1,2.2,8.9,0,12.6.6s6.2.2,9.4.2c6.2,0,12.2.6,18.4,0s9.7,1,14.3.9,6.6-1.4,10.2.5c1.4-.9,3.5-2.2,5-2.6,5.7,3.1,11.3,1.4,16.8,2,3.4.3,5.4-.7,8.3-.6l11.9.6h10.2c7.5,0,14.9,2.2,19-1.6,4.1,2.9,8.5,1.8,12.9,1.9s9.6.2,15.1-.4,5.7,2.1,7.8-2l7.2,2.7c4.5-6.4,10.4.8,18.5-.6s6.7-.2,10.7,0,6.5-.3,9.3-.2,3.8-2,5.3-.4c2.7,2.9,5.9-.9,7.8-.3s6.6,1.2,9.8,1.1l24.4-.3c2.5,0,4.5,1.3,7.4,1.2l23.7-.7c3.5,0,6.3-.2,8.9,2,3.1-2.7,6.9-4.6,10.8-1.4l5.1-.7c5.8,2,10.7-.2,15.9,0s6.5,2.9,10.6,1l9.7.5c4.1-2.1,6.5-.8,10.4.2l15.2-1.2c1.3,0,2.8,2,3.6,1.6l2.9-1.7c2.2,1.5,5.5,2.2,8.3,1.4s5.9.2,8.7-.1,4.8-1.6,7.5.1c4.7,3,12.9-1.8,17.3-.3l4.5,1.5c1.1.4,2.7-1.4,4-2.7,5,2.4,10.3,1.5,15.6,1.4s7.7.1,11.7.2,4.5,1.8,7.2.2,5.1-.1,7.3,1.1,3.7-2.5,4.7-2.8c2.4.9,4.3,1.9,7.2,2l8,.3c4.8-1,8.7.8,13.4,1.1l10.9.8,12.7.7c2.4.1,4.2-.9,6.1.5s1.9,3.3,2.4,4.9c2.6,1.4,5.6-1.4,7.6-1.8,7.3-1.2,14.2,2.3,21.1,2.8s4.4,1.7,7.1,3.3l10.3-.4c2.7,1.5,5.2.2,7.6.3l-13.2,39.5-5.5,20.9c.4,1.7,1.1,2.3,2.2,2.1,1.3-6.2,4.2-11.4,6.4-17.5l3.4-9.6c2.1-6,3.9-11.3,5.8-17.3l10-31,7.8-23.4,7.3-22.4c.9-2.9,3.4-5,.5-7.8l-15.7,42.7c-2.2,6-2.8,12.7-7.2,18-2.8-4.5.4-8.5,1.7-12.5l7.5-23.6c2.4-7.6,5.3-14.6,7.8-22.2l12.3-38.9c1.8-5.8,4.2-11.1,5.5-17.2l4.2-9c-11.3-5.9-18.4-16-20.8-28.6-3.2-16.6,7.4-31.9,22.8-38.4,5.4-2.3,11-4,16.6-1.2,4.2-3.9,3.9,1,11.9,1.9s8.2,5.8,11.6,8.7,4.4,6,5.8,10.1l3,8.5c4.4,12.9-3.7,32.6-17.3,37.8-6.7,2.6-12.9,5.9-20.6,5.1l-3.7,10.4c-1.4,7.9-4.3,14.8-6.6,22.3s-5,13-7.3,19.8l-3.3,9.7-3.7,11.2c-1.8,5.6-4.1,10.6-5.9,16s-3.7,12.6-6.2,19l-5.4,13.7c-3,7.5,7.8.4,11.7,1.2s5.6-1,8.5-1.5c5.2-.9,11.2-2.6,16.5-2.4s4.2-1.1,6.6-1.6l20.4-2,10.6.5c12-2.4,19.1-.2,25.1-1.7s8-.4,12.4-.3,9.3-1.1,14,.4l2.9-1.6c7.2,2.5,17-1.5,21.1-.1s10.1-.1,15.4-.2l27-.4,16.3.3h19.2c0,0,6.1.4,6.1.4l27,.8,7.5.4,14.4.3,11.7.4h14.3s15.5,0,15.5,0l18,1.3,8-1.3c3.4,2.3,5.3,1.2,8.8,1l14.3-.7c4.8-.2,9.9-.5,14.8-.8l12.5-1c5.1,1.2,9.1,1.9,14.5.5l11.6-.4c2.8-.1,4.2.3,6.5.7,3.9.6,8.3-1.6,12.3-.1s4.7.1,6.7-.9c3.3,2.2,6.3.6,10.2.2l11.7-1.2c4.3-.4,7.4,3,7.6,6.8l.4,8.7c2.2,3.7,3.7,8.1,4,12.6l.3,6.7v8.8s-.5,11.4-.5,11.4l-.3,7.6.6,16.7-.6,9.4.9,10.8c.3,3.8-1.3,7.8.3,11.1Z"/>
  <path class="st1" d="M24.3,190c.9,1.1,1.2,2,.9,2.7-1.1.5-2.3,1.2-3.3,2.4-1.4,2.4-5.7,2.9-6.8,0-1.5-.1-2.6-1.1-3.4-2.4s.4-7.6,5.2-8.3,9.7,2.3,7.4,3.5l-1.8.9c-.7.3-.3.9,0,1,.6,0,1.1.2,1.6.3Z"/>
  <path class="st1" d="M21.9,195.2c1.2.5,2.4,1.5,3.9,2,.9.8,1.3,1.2.1,1.7-3.6.7-7.1.4-10.9,0,.8-.9.7-2.6.1-3.7,2,.1,4.9-.8,6.8,0Z"/>
  <path class="st1" d="M32.1,187.1c2-1,2.9,1.8.9,2.8.7,1.8,0,2.6-1.9,2,.8,1.6-.3,1.7-1.8,1.1h-2.2c-1.9-1.3-1.2-2.5-.2-4,.8-2,3.1-2.6,5.1-1.9Z"/>
  <path class="st1" d="M263.1,574.6c-1,2.4-3.9,2.9-5.9,2.1.6-1.8,2-3.6,3.9-4.6s2.7.6,1.9,2.5Z"/>
  <path class="st1" d="M781.9,263c-.2.9-1.9,2.2-1.2,3.8s.8.9,1,1.1c.5.4.3,1.3-.6,1.7s-.9.1-1.7-.8c-3.4.4-1.4-.9.4-7.8.7.8,1.3,1.5,2.2,2.1Z"/>
  <path class="st1" d="M27.1,192.9c-.5,0-1.4-.3-1.9,0-.3.2-1.6.2-1.6-.4s.4-1.6.7-2.3c.7,0,2.2-.4,2.6-1.1,1.2.2,1.4,2.4.2,3.9Z"/>
  <path class="st1" d="M35.9,188c1.4.2,1.2,1.9.9,3.1v.8c-1.9,3.3-3.7.6-4-2.1l-.9-2.8c.9-.8,1.9-1.4,3-1.8-.4.8,0,2.4.9,2.7Z"/>
  <path class="st1" d="M788.6,481.8c-.1-3.5.8-6,2.9-7.6-.9-2.1.5-3.2,2.7-3.1-1.8-1.1-3.6-2.2-5.5-3.3-1.4-4.2-3-8.2-1.6-12.8s-1.5-7-1.6-10.6l-.2-13.9c4.4-.7,9.4-.9,13.7,1.2,0,1.2.4,3.5,1.1,3.9,6.7,3.6,4.7,10.4,11.1,17.9,8.8,2.6,5.5,14.7,10.3,15s.9-3.1,1.1-4.1c.8-3.3.9-8.7.5-12.5l-1.7-14.8c-.2-1.7-1.3-5.7,1-6.6s8.8-.8,11.6,0c4.4,1.2,1,5.4,1.6,7.1,1.1,2.7,0,5.9.1,7.8.4,3.9,1.4,7.4.6,11.7s.9,5.2-1.3,6.6c2.3,2.6,2.8,5.4,2.8,9.3v9.1c-2-.9-3.9-2.2-5.7.3,3.5.5,5.5,2.1,6.1,5.2s-.7,7.7-3.1,10.8c-2.4-2.7-4.9-3.2-7.1-1.3s-2.1.2-2.7-.2-1.4-1.8-1.4-2.9c-.1-4-3.2-5.3-5.8-7.5l-4.5-8.6c-1.1-2.1-5.5-3.2-5.5-6.3,0-4.6-1.4-10.2-6.5-10.6.6,2.2,1.6,3.7,1.1,5s-1.7,1.3-2.8,2.2c-.3.8,1.5,3,1.5,4-.1,3.3,2.9,5.5,2.8,8.3l-.2,11.2c0,2.5.8,3.8-.8,5.1-3.5,2.9-7-3.6-12.2,1.2-3.3-4.1,1.5-10.2-2.6-16.3Z"/>
  <path class="st1" d="M987.6,497.1c-3.1,2.1-5.7-3-11,.2-1.9-2.7,0-6.5.3-9-5.1-7-2.5-17.8-2.6-17.8l2.3-.5c1.8-2.6-.9-4.4-2.2-5.5-.9-3.5-.9-7.6,0-11.1l2.6-3.9-2.1-4.1c-1.3-2.6-2.6-4.5-3.6-6.7v-8.1c3.5-2,9.3-2.3,12.6-.8s2.3,5.3,3.2,6.9c4.5,3.4,5.7,7.7,7,13.3,1.2,2.1,6.2,4,6.4,7.2s.8,7.5,4.5,10.3c3-3.7,3-7.8,2.5-11.8l-.9-8c-.7-5.9,1.9-12.2-2.2-17.7,4.9-2,8.9-2.1,13.7-1.4,2.9,4.4,3.6,9.3,1.2,14.4,4,5.3,3.4,12-.2,17.1.6,2.1,1.9,3.5,3.5,5.2-1.3,3.5-1.9,6.9-.3,10.8-2.8,2.8-3.1,6-.6,9-3,4.4,0,10.9-2.9,10.8l-8.5-.5c-2-.1-1.6-3.9-2.2-5-1.4-2.3-5.2-3.8-7.4-5.4,1.4-5.2-3.2-6.2-4.9-8.9s-1.6-7.7-5.6-9.8c-.4-2.2-2.4-3.1-4-2.2s-1,2.7-.4,3.4c2.3,2.7.6,5.7,1.2,8.1,2,8.2,2.7,19.8.3,21.5Z"/>
  <path class="st1" d="M324,425.9c1.9.8,4.1.8,6,0h2c2.6.1,1.6,4.6-.7,5.7.6,3.9,1.8,7.7,3.6,11.3,2.1,2.8,3.6,7.7,1,10.9l-2.5,1.1c-.4.2-.4,1.6,0,2s2,.8,3,1c.9,3.7,1.1,9.3,0,13.4l-1.6,3.2c-.5.9,1.7,2.4,2,3.6,1.3,5.5.9,11.4-.7,17-8-2.9-11.7,1.3-12.7-1.3s4.3-6.4-2-15.1l2.2-11.5c-.9-4.4-2.5-7.8-1.7-12.4s-1.6-2.2-2.4-2c-3.8.9-1.5,5.9-4.3,7.2-7,3.1-2.7,10.9-8.6,13-4.7,9.6-7.5,10.1-8.3,1.7-3.2-.3-3.6-2-4.3-4.8-1.1-4.4-4.2-8.8-6.6-12.5-1.5-.1-2.6,1.8-1.9,2.7s1.1,2.1,2.7,3.4c-2.8,1.7-3.7,3.8-3.1,6.6,1,3.9,1.3,9.8,0,13.3-.5.4-1.1,1.6-1.9,1.7-1.4,1.5-.8,3.4,1.6,5.6-4.8,3.4-9,3.7-7.9-3.3-4.3,4.7-7.4,1.8-5.2-3.5,2.1-2.9-1.6-8.4-1.5-15.4,2.9-4.2,1.1-8.1.6-12.5-.6-6.3.9-12.1-1.3-17.8-.9-6.7-.8-9.4,6.4-9.8s7.3,3.1,3.7,7.7c.6,3.5-.3,5.6-2.6,6.3.3,1.5,0,2.7-1,3.6.9.7,2.3,1.1,4.2,1.2,1.2,3.6,2.4,4.1,5.6,2.8.4-2.2,1.3-3.5,2.8-4,2-1.5,6.3.6,3.9,3.3,3.7,2.8,5.9,6.1,6.4,9.7,5.2,3.9,10.2-11.1,11.9-12.6,3.4-3,5.4-4.4,5.6-9.4s3.2-4.7,2.9-7.5,2.7-3.5,4.4-3.5Z"/>
  <path class="st1" d="M958.4,487.2c-1.4,1.5-2.6,2.1-3.7,1.7-1.8.5-2.7,2.8-4.6,4.3s-6.4,4-9.1,4.1l-13.1.5-10.8-3.7-2.8-4.3c-3.4-2.4-5.6-5.4-6.6-9.4-1,.2-2.2.4-2.8.1s-1.4-1.4-1.4-2.1c0-6.9-3.2-10.2-.2-12.5s1.5-.4,2.9-.2c2.4.3,3.7-2.4,3.7-4.2.1-4.2-6.2-4-7.9-7.4s.7-3.4.5-4.4c-.8-3.9,3-4.9,4-6.6,2.3-4,3.4-5.5,7.3-7.6l8.2-4.5c2.7-1.5,4.2-1.2,6.7-1.6,8.7-1.5,16.7,1.1,23.9,5.8s4.5,2.7,6,6.6l5.9,5.1c-2.1,3.9.1,6.4.8,9.6,1.2,5.7,1.1,11.9,1.2,17.5s-2.7,5.3-4.7,7.5c-1,1.3-1.3,5.3-3.2,5.7Z"/>
  <path class="st1" d="M870.3,496.8c-3.1,0-4.6.1-7.2.4-3.8.3-7.7-2.1-12,.4s-2.8-.3-3.6-.6c-1.2-.5-1.1-2.3-1-3.8l.4-8.1-.2-9.1.9-9.9c-.7-5.8-1.6-11.1-1.9-17l-1.1-19.5c4.6,1.6,8.2,1.9,11.6-.6,4.8,2.1,9.8.1,14.9,1.3,7.4,1.7,16.9,7.7,21.1,13.4s1,6.3,3.7,8.5-1.2,5.9-1.3,7.9c3.6,9.4,1.7,14.9-2.6,24-2.1,1.4-3.3,2.7-5,5.2-3.1,4.5-11.3,7.5-16.7,7.5Z"/>
  <path class="st1" d="M734.4,495.1c-4.7-2.4,0-7.3,2.9-9.3l2-1.3c14.6,5.2,23-5.7,21.9-19.8l2.8-2.8c-2.3-2.8-3.5-5.9-3.8-9.3,1.1-2.7-.7-4.8-5.1-6.2,0-4.7-2.2-6.9-6.4-6.7-9.1-7.9-19,7-17.7,16.1l-2,1.2c-.3,1-1.1,1.5-2.5,1.4,0,2.7.5,5.3,1.2,7.8,3.8-2.3,6.9,10.6,6.5,12.7s-.4,2.3-2.4,2.3c3.2,5.5-.9,7-5.3,4.2-1.3,1.6-3,1.4-5-.5-3.9-4.7-8.6-11.7-6.9-18.2,1.1-4.1,1.6-6.3-.3-10.5s-.1-8.5.3-11.1c2.7-2.3,3.7-4.3,5.2-7.4s4.9-3.9,7.2-5.7c6-4.8,13.8-3.5,21.1-3.8s17.7,5.4,23.7,12.6,4.1,2.8,3.9,4.9l-.7,5.9,2.4,1.9-.2,2.2c2.1,4.6,1,8.7-2,12.9,1.8,1.3,3.1,2.6,3.3,3.8s-1.4,2.5-1.7,3.6c-.9,4.4-3.4,7.3-6.5,10.4-4.9,4.9-6.7,6.1-13.7,8.4-7.7,2.4-15,3.6-22.4.4Z"/>
  <path class="st1" d="M570.3,238.4c2.4,4,6,7.4,10.8,9.3,2.8,2.9,3.7,4.6,5.1,8.3s3.1,4.1.9,7.6-1.1,2.6-.7,3.4,2.9,1.5,2.7,2.1c-.7,3.2-2.8,7.7-2.9,11-.2,5.5-2.7,8.5-5.7,12.4-4.9,6.2-10.4,10.5-18.4,11.2s-3,2.2-5,0-3.5.5-4.7.7c-4.8.7-10.3-1.9-13.4-5.8-.3-2.5-.8-4.8-1.4-7.2-.6-1.3-2-1.8-4-1.5l-1,.8c1.3-.8,2.5-1.3,2.8.1,1.1,5.2-4.3,2.7-6.2,0-2-6.4-7.1-4.9-3.4-14.6-4.2-9.9,1.4-27,9.5-33.1s5.6-4.4,8.1-5.1c5.5-1.6,11.6-2.8,17.4-2.6s6.3,3.8,9.6,2.9Z"/>
  <path class="st1" d="M632.6,237.6c4.5,2.8,7.4-.9,12.7,1.4s2.2,3,1.5,4.6c-1.6,3.1-.3,5.5-.4,8.3-.2,7.5-.4,22.4.2,24.5,1.2,4.5-1.1,5.5-1.8,9.1s0,9.3-4.2,11.9c-.6.5-1.1,2.8-1.8,3.2l-4.7,2.5c-5.5,2.9-12.4,1.2-18.6,1.5s-17.5-6.9-18.4-13.8c2.2-2.8,2.3-6.4,1-9.8-2.5-11.3,4.3-19.3-2.2-27,3.1-4.5,1.6-9.6,1.7-14.3.6-3,5.7-1.3,7.7-1.2,3.4.2,8.5,2.2,7.3,6.3s-6.5,10.4.5,13.7c-1.8,4.9-1.6,9.6-.3,14.8l-1,6.6c1.1,3.8-1.4,6.5-1.5,9.1-.2,4.6,5.7,6,8.6,6.8s3.8.7,6.8-1.1,4.4-.7,5.4-1.9,1.9-4.2,1.9-6.7v-11.8c.2-5.4-1.5-9.7,0-15.2s-2-14.6-.5-21.4Z"/>
  <path class="st1" d="M464.5,467.4c-2.9.2-5-1.5-6.5-5l-2.9-.4c-1.2-1.5-2.3-2.4-3.3-2.8-2.4,0-3-1.9-2-5.7-2.2-2.7-3.5-5.5-4-8.6l-3.4-1.5c-1.4-4.3-3.9-6.8-7.5-7.5-2.9.5-5.2.2-7-.8-1,2.2-2.1,4.3-3.4,6.3-1.1,2,0,3.1,3.3,3.3,2.7-1.6,3.3.7,3.6,3.3-.9,5-.9,10,.2,15l-2,1.1c.1,1.6-.7,2.4-2.5,2.5-2.5,3.7-2.2,5.8.8,6.3,3.7,2.4,4.9,5.6,3.5,10,3.1,3.1,7.6,1.7,13.3-4.2l2.3.8c3.4.5,2.8,8.6,1.9,11.6-1.8,1.6-4.2,3-6.8,2.6-3.8-.6-7.4,1.1-10.9.8s-10.4-1.7-15.1.9c-3.8-2.6,0-6.3-.3-8.4-1-7.4.1-13.1.3-19.9s-3.4-7.8-1.7-12.9c2.7-8.2-3.2-11.3-2.2-15.2s1-7.1-.6-11.4c3.3-1.3,6.3-.9,9.8-.1l3.5-1.2c4.2,1,8-.1,12,.2,15.5,1.4,32.4,16.7,26.9,32.6l.8,8.2Z"/>
  <path class="st1" d="M723.3,287.3c.6.9,2.8,1.4,3,2.2s-.7,2.3-1.5,3.4.8,2.9,1.6,3.6,3.6.3,4.9-.1c2.3,1.8,4.9,1.2,7.6.6,1.5.1,3.9.5,6.3.4s3.4,6.9.4,8c-4.9,1.8-9.6,0-14.5,0h-19.5c-4.5-5.8,3.9-7.9.3-14.3s.6-6.4.6-9.2l.2-17.8-.5-9.9c-.2-4.4,1.7-8.2-1.3-12.3s0-1.7,0-2.1c.2-.6,1.4-1.7,2.3-1.4,5.4,1.3,11.1.2,16.5,1.2s3.3,1.6,6.6,0,6.6-.5,9.2-.8c1.8.3,3.2,3.4,3.1,4.9s-1.4,5.7-3.6,5.5l-11.8-1.4-2.9-1.6c-1.1-.6-2.4,1-3.4,1.9-2.9,2.8-1.3,4.6-.8,7.9l1.9,11.1,13.9.7c2.7.1,2.2,7.7-.7,8.6-4.9,1.5-9.3-.5-14.1-1.3l-1.9,7.8c-.3,1.1-3.8,2.4-2.1,4.7Z"/>
  <path class="st1" d="M387,446.2c1.6,1.6,2.3,3.7-.2,2.8-1.3,1.3-2.6,2.4-4,3.4l-.2.8c3.9-1.2,5.6-.4,5.2,2.4-1.4,1.9-1.4,3.3,0,4.4,1.6-2.2,4.2-1.5,7.7,2,1.5,2.2,1.4,9.3,5.8,14.9,2,3.4-1.6,5.3-4.2,2.3-2.2.6-3.4,2.8-3.5,6.6-1.5,1-3,.4-4.4-1.9-.8-2.8-1-4.7-4.5-5.9s-9.4-1.2-13.6-2.3c-3,.8-10,0-9.1-3.9s4.2-3,5.9-1.8l.8-2,11-.2c2-1,1.2-3.6-2.6-7.8-2.3-14-6.1-9.4-8.3,2-2,1.7-2.7,3.4-2.3,4.9l-1.8,1.4c1.3.2.9,1.3-1.1,3.3-6,1.1-6.5,3-1.6,5.6-.6,1.6-1.8,3-3.5,4.3v3.2c0,.2-.2.3-.4.5l-.3,2.9c-.1.2-.1.8,0,1.1.2,4.4-3.6,5.5-7.2,5.9-1.9.3-4,.5-5-1.3-3.2-5.4,0-7.7-.4-13.4,7.7-6.7.7-12.9,7.6-18.4s2.7-4.9,4-7c-3.7-8.8,8.2-9.1,4.8-17,4-4.6,2.7-8.7,5-10.6s8.9-2.1,12.4-.4c.3,2.6-.1,4.9,2.4,6.5,5.7,3.8,1.6,11.4,5.4,12.8Z"/>
  <path class="st1" d="M687.8,252.2c1,2.7.1,30.4-.6,40.9l-.8,11.7c-7.3-1.9-12.4,1.5-14.9-1.8s1.1-2,1.1-3.4c.1-3.3-1.9-8.1-.3-11.3s1.3-12.1,1-18.2,1-6.4.1-10,2-9.2.2-12.6c-5.3-6.3-13.6,1.1-18-2.6s-1-3.3-.5-5c1.1-3.9,7-.9,14-2.6l4.6,1c3.9-2,6.8-1,10.7.5l9.2-1.1c2.9-.3,5.1.8,8.2-.7l1,7.8c-4.3,2.9-8.5-2.4-14.2,1.1-.9,1.2-1.5,4.9-1,6.3Z"/>
  <path class="st1" d="M671.6,483.5c1.9-2,2.8-1.2,2.7,2.6l2.6,1.2c-1.6-1.2-2.2-2.7-1.9-4.4-.5-.8-.2-1.1.7-.9,1.4-2.5,1.2-6.7.2-8.3-2.6,3.1-3.7.3-3.3-3.2.9-3.2,1.2-6.3.7-9.5,1.8-7.3,1-12.8-2.4-16.6-1.1-4.7-4.6-9.9-2.5-14.9s8.2-1.8,14.9-.9c.9,5.8,1.1,11.8-1.7,17.5,4.1,3.8,2.8,8.8,2.8,13.6l.3,24.2c0,1.9,1.7,3.9,2.7,3.6l3.7-1.1c10,.6,14.5-1.5,16.4,4.7s0,4.1-1.8,5.2-2.9,0-4.6-.7c-4.4-1.9-9.1-.3-13.5-.4s-9.7.2-15.2.5c-3.5-1.7-3-9.4-1-12.3Z"/>
  <path class="st1" d="M483.8,466.3l-2.3.4c-2.3-3-5-4.8-8.3-5.5.2-2.5-1.7-5.5-1.8-8.2l-.2-12c-.1-6.9-.4-15,.2-14.8l2.3.5c2.9-1.7,5.9,1,8.1.7l10.7-1.3c2.8-.3,5-1.4,7.8.6,1.6,0,4.6-1.3,6.6-.3s1.7,5.4.3,6.7c-3,2.8-7,.6-10,.4s-4.7,1-7.6-.3-3.9,2.1-4.3,3.5c-1.4,4.2,6.8,4.2,1.5,15.2,4.1,3.9,9.7,4.3,14.7,3,.7,2.8,1.5,4.8,1.2,7.6l-10.2.6c-3.5.2-6.3.3-8.7,3Z"/>
  <path class="st1" d="M589.3,431.9c2.4,3.1,1.2,4.9-1.8,6.8.6,4.2,1.8,8.4,3.5,12.6-.2,1.6-1.8,2.3-5,2.1,1.5.2,1.8,2.5,1.9,3.8,1.2-.9,1.8-1.9,1.1-3.4,4.7-2,6.9,4.9,2.3,6.1.8,2.4-.3,4.9-1.6,7,3,2.4,3.3,4.7,3.3,7.9-.8,1.8-1.4,4.2-1.7,7.4-5.9,7.2-9.4,7.4-10.5.7.8-1.7.5-3-1-3.9,1-2.2-1.5-4-1.7-5.9.7-3,.4-6,0-9,1-4.9-1.6-9.4-.5-16.4s.7-9.1-1.6-14-1.4-6.6,1-6.4l11.1.8c1.4.1,1,3.1,1.1,3.8Z"/>
  <path class="st1" d="M614,466.3c1.4-.7,2.5,1.3,1.9,2.5,2.7-.9,3.4.8,2.1,3.1-.4,3.3-1.7,4.7-3.8,4.1-.5,1.5-1.1,2.7-2,3.8-1.1,1.3-2.8,2.3-5.2,3-1.7-1.2-1.1-4.3-3-6.1s-4.9-1-4.9-3.9c.2-8-5.7-16-7.9-13-.4-1.1,1.6-3.2-.8-5.3-.9,1.1-.8,2.5-.7,4.7-.7-.8-1.1-1.9-1.9-2.1-.6-1.1-1.3-2.4-1.9-3.8.2-1.1-.1-2.3.5-3.4l1.1,2.2c.2.3,1.8-.3,1.4-1.3-1.4-4.1-4.4-8.7-3.2-13.2,1.4-1.4,4.2-3.1,3.5-5.8l6.7,7.1,1.6,7.4c2.1,3.3,5.5,5.2,8.2,7.8s-.3,8.4,3.8,11.7,2.9,1.2,4.5.3Z"/>
  <path class="st1" d="M619.7,428c1.1.4.9,1.3.6,2.3s0-2.2.9-2.4c8-1.7,5.5,10.9,6,22s1.4,9.2-.4,13.1c1.2,5.7-4,6.7-4.1,1h-1.2c-1.6,2.5-3-3.2-2.9-3,2.6,2.7,1.8,11.8-1.8,7.1-1.7-1.2-2.6-3.3-3-6.3l-2.3-8.2c.7-3.8,1.2-6.2,1.1-10.1l-.3-7.6c0-2.1,1.5-4.6-.6-7.3,2.8-1.3,5.4-1.4,7.9-.6Z"/>
  <path class="st1" d="M473.5,485.3c1-1,2.4-1.8,4.2-2.4-.9-1.7-1-2.6-.5-4.4s6.5-5.2,7.9-6.2c3.7,1.2,3.5,7.5,1.7,13.9h21.2c3.1,0,2.1,8.7-1,9.5-1.9-.6-4.5-4.1-6.8-3.4-3.8,1.5-7.7,3.3-11.5.8l-4.8,3.2c-2.3-4.4-7-.9-9.6-1.6-4.3-1-2.5-7.3-.8-9.4Z"/>
  <path class="st1" d="M626.8,463c.3,1.4,1.8,3.7.6,5.5s-3,2-2.3,2.9l2,2.6c1.4,6.1.1,12.5-1.7,18.5s1,2.6.6,3-1.9.8-3.1.5l-9.2-2.8c-1.1-4.3-3.4-7.9-6.7-10.3.3-2.7-.9-5.7,0-8.8,1.4.9,2.1,2,3.7,1.4-.7,1.7-1.3,2.9-1.1,3.5s2,.7,2.6,1c.3-1.8,1-3,2-3.8,1-1.5,1.6-3.7,3.8-4.1l2.1-.2c-2.6-1.1-2-2.7,0-4.2,0-2.2.5-3.4,1.6-3.5v-1.6c0-.5,1.3-1,1.8-.4.9,1,.1,2.4,1.3,3.6s1.6.3,1.6-.6.2-1.6.6-2.1Z"/>
  <path class="st1" d="M637.1,360.8l4.2.2c3.1,2,8,2.4,11.1,0,2-.8,4.5-.4,6.9-.3l2.4,7.8c.3.9-1.3,1.9-2.1,1.6l-2.3-.9c-3.4-2.5-5.5-.6-7.9,1.2-3.3.8-8-.4-11.2-1.3s-5.7,1.3-7.7,1.3c-4.8-.1-9.4-1.2-14.2-.5-1.5-.2-2.6-4.3-1.7-5.4s2.7-3.9,4.3-3.7c4.1.6,7.2-.4,11.3-.1l7,.4Z"/>
  <path class="st1" d="M464.5,467.4l-1.8,6c-.4,5.8-2.6,9.8-8.4,12.1-.3,3.3-2.2,6.1-5.5,5.8-1.9-1.1-1.3-3.1-1.4-5.4l-.4-6.2c.5-2,1.4-4.2,2.6-6.4,0-4.1.1-8.2.6-12.3l1.6-1.7c.1-.6,0-1.2.4-2.2l4.8,3.9c.6-1.6,1.2-2.4,1.6-2.7,1.2-.9,1.8.8,1.4,1.3-1.6,2,1.6,4.5,4.5,7.9Z"/>
  <path class="st1" d="M566,433.9c1.7,1.4.5,3.6.8,5.2l1.7,7.9c.5,2.3,1,7.3-2.4,6.7l-1.6,1.7c-5.7-.9-7.2.6-4.4,4.5l-2,1.4c2.2.9,1.9,1.9-.5,1.9.5.9.2,1.1-.7.8,1,1.7-.4,2.8-1.8,1-.4-1.1-.9-1.5-.4-2.8l-1-5.2c3-6.7-3.9-12.7-.7-21v-5.4c1.1-3.1,4.1-1.4,5.5,1,2.1-2.2,4.6-1.5,7.5,2.4Z"/>
  <path class="st1" d="M844.6,44c-2.4,1.6-4.9,1.8-6.3,1.2-3.9-1.9-6.6-13-1.3-19.2s2.9-3.3,5.4-3.3,4.2,1.3,5.7,4.4c2.7,5.5,2.3,13.1-3.5,16.9Z"/>
  <path class="st1" d="M483.8,466.3c.3,1.6-.2,4.5,1.3,6.1s.3,1.4.5,1.8c.3.8-1.4,1-1.8,1.4l-5.7,4.9c1.1.7,2.1,1.2,2.7,2.1-2,2.7-4.4,4.1-7.3,2.8,1.9-2.4-1-6.7-1.8-8.9l1.4-15.3c.4-.4,1.8-2.2,2.5-1.9,3.2,1.8,6.1,4.7,8.2,7Z"/>
  <path class="st1" d="M676,473.8c1.4,1.7.9,6.5-.2,8.3l-.7.9c1.6,1.7,1.5,2.3-.7,3.2l-2.7-2.6c1.3-1.9.6-4.3,1.1-6.1-3.7-4.7-2.7-9.9-1.8-15.5s-4.4-12.5.2-17.4c8.7-2.3,2.6,16.1,5,20.5s3.8,1.3,3.6,3.5-.3,3.7,1.9,5.9c-5.8,1.1-2.4-5.8-5.5-6.9s-1.9.2-1.7,1.1,1.2,1,1.5,1.1c.4.1.4,1.5-.2,1.8s-1-.6-2,.6c.6.9,1.8,1.7,2.4,1.8Z"/>
  <path class="st1" d="M593.1,474.8c0,3.5-1.4,7.5-.4,11.4s.6,8.4-4.2,9.1l-7.4-1.3c-1.9-.3-3.9-1-4.6-2.1s-.8-3.3-.3-4.6l3.6-8.2,2.8-.9c.6-.2,1.1,2.5.8,3.1-.9,1.3-.5,1.8-.4,2.5,0,1.3,1.9,3.1,2.6,2.1,1.8-2.7,2.8-4.7,5.7-5.3-1.3-.8-2.7-.7-2.9-1.3l-1.1-2.9c1.5-.8,3.3.1,4.5,1.8.6-1.4-.2-2.1-.2-2.7s1-1,1.7-.7Z"/>
  <path class="st1" d="M564,470.1l-1.3,2.7c-2.4-2.9-4.1-6.1-5.1-9.7l.5-1.9c4.3-3.7,10.1,5.9,5.8,8.9Z"/>
  <path class="st1" d="M562.9,473.9c3.7,2.4-.5,7.5-2.3,3.2l-.6.4c3.9-.6,8.7,6.8,3,6.6-.8.4-1.1,1.6-.9,3.7,5.1-1,3.2,5.3-1.2,5.4-1.3-.5-3.3.8-4.6,1.5l-3.3-3.4c2-.4,3.1-1.6,3-2.8s-.8-2.7-2.5-3.5l.5-9.1c.2-3.8,2.5-7.6,1.2-11.1l1.8-1c1.3-.5,2.1.9,2.4,4,1.3,2.2,2.6,3.9,3.9,5l-.3,1.1Z"/>
  <path class="st1" d="M566.2,472.1v.9c.1,4.2-3.5,5.7-3.3,1-.7-.9-.3-2.2,1.1-3.9,2-2.5,3.8-.6,2.2,2Z"/>
  <path class="st1" d="M289.8,440.9c-1.2,4.4-4,4.5-7.8,2.6-1,.2-1.7.7-1.9,1.6.7,3.3-1.7,2.7-3.8.9-.2-1-.9-2.4-1-3.4s3-1.8,2.8-2.6c-.7-3-.4-5.9,2.5-8.2,0-2-3-3.2-5-3-3.7.3-6.3,4.5-5.8,9.4-1.2-3-1.6-7.2-.2-10.3,4.5.4,8,.3,11.7-.6,2.2,8.1,11.2,9.5,8.5,13.6Z"/>
  <path class="st1" d="M566.2,453.6c-1,.9-2.1,3.6-1.3,3.9l3.8,1c.6,3.2-.2,7.8,1.2,11.1l-3.7,2.6c-.6-.8-1.1-1.7-2.2-2,0-3.9-1.7-8.2-5.8-8.9.5-1.9-1.5-3.6-2-4.8,1-1.7,2.4-2.8,2.5-5.4.9,1.2,2.1,2.8,2.7,2.5,1.9-1,3.5-.2,4.7,0Z"/>
  <path class="st1" d="M564,470.1c0,1.4.2,2.9-1.1,3.9l-5.4-6.2c0-1.1,1.1-3.4-.6-3.9.2-.1.6-.5.7-.8.4,0,1.8.3,1.8.7v1.9c1.2,1.9,2.2,2.8,2.5,6.2,1.1-.4,1.6-1.2,2-1.8Z"/>
  <path class="st1" d="M562.9,473.9c.7.9,1.3,1.5,2,.5s.8-1,1.4-1.4c.6,4.8,2.6,9.9,1.8,14.9s-4,6.7-7.3,5.4l1.9-2.2c1.1-1.2-.2-2.3-.7-3.3-.2-1.4.1-2.6.9-3.7.2-.4.8-1,.7-1.5-.2-2.2-3.2-2.4-3.7-5s-.3-.5-.5-.6c-1.1-.5-2-2.3-1.1-3.7s2.8.3,2.4,1.2l-.8,2,.6.7c.6.6,2.2,0,2-.9-.4-1.2-.3-1.8.4-2.3Z"/>
  <path class="st1" d="M401.4,476.8c2.4,3,4.6,5.9,3.3,10.3l-1.3.3c-1.4-3.6-2.8-4.3-4.3-2.2.7,4.1-2.5,7.6-6.1,8.9-.9-.8-1.3-1.6-1.8-3.3l-1.9-6.9c0-.2.4-.5.6-.4.4,0,1.1.5,1.5,1.4.2.3,1.6-1,1.3-1.4l-1.8-2.2c1.5-.5,4-2.6,2.7-3.7l-3.6-3.1,3.7-2.1c0,2.1.5,4.1,1.3,4.9s2.6-.7,3.8-.3.6.9.5,1.2c-.4,1,.5,1.6,1.2.8s.6-1.3.9-2.2Z"/>
  <path class="st1" d="M1078.4,383.5c1.9,1,2,8.6,1,10.2s-2,1.4-2.5.8c-1.9-3.1-1.8-6.1-2.9-9.7l-3.2,2.6c-3.2-2.3-5.2-6.9-3.1-10.5.9-1.4,4.9-1.2,5,0,.2,1.9.4,3.6.9,4.9s3.5,1.1,4.7,1.7Z"/>
  <path class="st1" d="M404.8,487.1c.6,2.1.2,6.4-1.9,7.4-4.2-2.9-6.4,2.4-9.8-.4,1.1-2.5-2-4.4-.1-6.8s1.2-.2,1.2.2v3.1c1,.1,2.8-1.8,3.4-3.6-.4-.7-1.3-1.6-.8-2.2,3.1-3.5,4.4-2.2,6-5.1l2.1,7.2Z"/>
  <path class="st1" d="M737.3,485.9c.3,5.1-5.3,5.8-2.9,9.3-5.1-2.2-9-5.7-12.7-10.2,4.4.9,4.1-3.3,5.8-3.2s1.3.3,1.2.7l-.5,2.4c1.1-.2,1.7-.4,3.4.5-.1-1.6,0-2.9.4-4.1,2.4-1.4,6.2,2.1,5.3,4.6Z"/>
  <path class="st1" d="M566,433.9c-.7.2-1.9.9-2.5.8s-1.2-1.7-2-3.1c-2.7,1.8-3.6,4.9-5.4,7.4-.1-4.2,2.3-6.4-1.7-9,.7,3.3-.7,4.2-1.4,5.9l-1.8-7.8c3.3-2,6.3-1,10.2-.3s4.1-1.1,5.2.6-.6,4.2-.7,5.4Z"/>
  <path class="st1" d="M283.3,485.1c-.4.9-.6,2.4,0,3s2.1.8,3.6,1.1c-4.8,7-8,3.8-13.9,6.2-2.7-4-3.6-8.1-1.1-11.5-.4.9-.6,3.9,1.1,4s2.6-2.3,3.2-4.2c3,1.7,4,5.1,2,7.6,3,.4,4.4-.2,5.9-.7-1.3-1.3-1.6-2.2-2-3.2s-.1-2,1.2-2.3Z"/>
  <path class="st1" d="M390.1,454.1c.3,3.7,3.8,5.3,5.5,7.9-1.9,2.2-1.8-2.1-4.2-2s-1.3.8-2.1,1.5-1.9,2.2-1,3,2,.3,2.8.4c1.1,1-.3,1.8-.7,2.3s-2.2,1.1-2.5,0l-1.9-6.4c-.2-.8-2.1-1.5-2-2.2.3-1.5,3.2-3.7,1.3-4.9s-1.8.4-2.4.6-1.8-1.7-1.5-2.1,1.1,0,1.4.2c4.7-5.1,7-5,6.9.3l.3,1.3Z"/>
  <path class="st1" d="M368.1,469.9c-1.1.1-2.5.3-3.5,1s0,3,1.8,3.4l4.9,1.3-3.9,1.7c-.6,0-1.7-1.8-2.4-1l-1.6,1.8c-2,2.2-4.3,3.8-4.6,6.5-.4-.9-1.4-2.5-1-3.7s2-1.8,3.4-2.5c-1.3-1.9-3.5-1.3-3.9-3s-1.5-3.4.2-5.5c.2.3.8,1.3,1.2,1.4,1.4.4,2.9-2.1,3.8-1.8s.9.9,1.1,1.4l1.4-2.7c1.9-2.5,4.2-1.3,3.1,1.6Z"/>
  <path class="st1" d="M192.9,274.2c2.8.8,1.5,3.9-.7,4.8-1.1.4-2.5.6-3.5,0s-1.2-1.9-1.2-3.2v-7.3c.1-1.7,1.4-3,2.2-3.6s4.1-.2,4,.9l-.8,8.4Z"/>
  <path class="st1" d="M335,443l-2.9-1.6c1.7-2.5-1.7-3.4-2.2-4.5.1-5.3-2.8-8.1-1.6-9s1.1,0,1.3.4,0,.6-.3,1.7c2.2.5,2.8-2.3,2.6-4,.8,0,1.6-.1,2.9.2l-.6,11.8.6,5Z"/>
  <path class="st1" d="M1073,311.2c3.4.6,2.4,3.7-.9,3.2,0-.5.8-1.6-.6-2.6-.8,1.7-1.5,3.4-3,4.1-3.1-3-4.9-7.4-2.6-11.1s4.9-1.2,6-.3c-1.9,2.7-1.4,5.8,1.1,6.7Z"/>
  <path class="st1" d="M192.1,285.2c3-.7,3.2,1.3.9,2.8-.6,1.6-1,3.1-1,4.8,1.1.9.4,3-1.1,3.1-1.2.2-2.9.3-3.9-.4s-2.5-7.4-.3-9.4,3.7-1.4,5.4-.9Z"/>
  <path class="st1" d="M1072.1,326.6c2,3,1.6,4.4-1.1,4.3-.1,1.2-.3,2.5-2,3.4-3.3-4.9-5.5-9.9-3-11.7s3.8-1,5.1-.3,1.3,3.1,1,4.4Z"/>
  <path class="st1" d="M539,298.6c-1.8-2.3-3.9-2.5-6.6-3.1-1.2-.6-2.8-3.3-3.2-4.6,1.7.3,3.1,1,4.6,2.1.3-1.3-.5-1.9-1.2-2.2v-.7c-.4-2.9-1.6-6,0-8.9,3.3,2.1,2,5.8.4,8.4l.6.5c1-.8,1.6-2.5,2.9-2.7,4.5,3.4,5.1,8,2.6,11.3Z"/>
  <path class="st1" d="M1071,331l1.1-4.3c.2.7.8,2,1.5,2h2.7c2.7,1.5,4,13.1-.9,12-3.5-.8-.6-9.5-4.3-9.6Z"/>
  <path class="st1" d="M191.4,314.8c-4.3-1.4-4.2-11,.4-7.6.2.9-.5,3.7.4,4.9.6.4,2.5-1.1,3.4-1.1,2.8,0,2.1,6.1.8,11.8-1.3.4-3.6.2-3.9-.5s0-1.9.2-2.4c1.2-2.7-.7-3.7-1.2-5Z"/>
  <path class="st1" d="M190.7,321.4c.8,9.2,2.2,15.1-2.6,13.4-2.2-2.6-2.5-6.2-2.2-9.7s2.2-4.3,4.8-3.6Z"/>
  <path class="st1" d="M1068.3,280.2c-2,0-.8-2.3-1.1-3.1-1-3.2-1.3-8.4,1.9-10.8s2.3-.4,2.8.1c1.7,1.5,0,9.3-3.7,13.7Z"/>
  <path class="st1" d="M191.1,303.1c2.3.8,2.4,1.1.7,2.9v1.1c-2.3-.8-1.7,4.6-.5,7.6h-1.3c0,.1-4.2-1.8-4.2-1.8-1-2.9-1.5-6.5.8-9.2s3.3-1.7,4.4-.6Z"/>
  <path class="st1" d="M1069.5,285.9c.9,6,.6,12.1-2,12.2s-3.9-6.2-3.4-8.4,1.7-4.2,5.4-3.8Z"/>
  <path class="st1" d="M193,288c.3-.7-.5-2.2-.9-2.8,1.7-1.9,1.3-4.3.1-6.2s.6-3.5.7-4.8c1.7-.4,4.6.7,4.7,2.9.3,4.1-1.8,11.8-4.7,10.9Z"/>
  <path class="st1" d="M1072.1,314.3c.2-.8,1.6-2,.9-3.2.9-1.8,2.9-1.1,3.7-.3,2.2,2.1,1.9,7.9.4,9.8s-2.1,1.5-4.4,1.3c.9-2.7-.8-5.6-.6-7.6Z"/>
  <path class="st1" d="M191.8,306.1c-.8-.8-1-1.8-.7-2.9,1.6,0,2.3-1.2,2-2.5s-1.1-2.7-.8-3.6c-.7-1.2,0-2.9.8-4,.7-.5,1.5-.7,2.1-.4,2.8,1.5,1.8,7.2.8,13.2l-4.1.3Z"/>
  <path class="st1" d="M788.6,481.8c-1.6-2.4,1.8-8.8.1-14,1.6-.9,3.5-.9,4.9.5l4.1,4.2c-.3.7-1.7,1.5-2.3,1.1l-2.6-1.5c.4,1.5,1.4,3.3.5,4.4-.8.1-2.4-.2-3,.6-1.8,2.3,0,4.6-1.7,4.8Z"/>
  <path class="st1" d="M1072,358.3c.8.4,1.4,8.4-2,11-3.6-3-5.1-7.9-1.9-11s2.8-.6,3.8,0Z"/>
  <path class="st1" d="M1079.4,400.9c1.8.9,2,9.8-.9,12.2-2.7-2.2-3.8-6.9-3-10.7s2.5-2.2,4-1.5Z"/>
  <path class="st1" d="M1070.9,349.6c-.2,1.6-1.7,2.2-3.3,1.4-1.8-2.7-2.4-6.8-.7-10.2s5.2-.9,5,1l-1,7.8Z"/>
  <path class="st1" d="M1075.9,435.2c2.1,1.6,1.5,2.3-1,1.5-.7,1.1-2,3.9-4,3.5-1.9-2-2.1-6.1-1.5-8.7s2.6-2,3.9-1.3c1.9.9,1,5,2.6,5.1Z"/>
  <path class="st1" d="M36.9,192c2.6-.2,4.2,2.1,5.3,4.4v1.6c-.8,1.1-2,1.1-3.4.4l-5.8-3.2c-1.6-1-2.3-2.1-2-3.2.5-.8,1.1-1.5,1.9-2,2.1-1.3,1.2,2.3,3.9,2.1Z"/>
  <path class="st1" d="M1076,364.2c3.1,2.2,4.2,8.9,2.6,11.8s-2.1,1.3-2.8.3c-1.9-2.7-.8-6.2-1.8-9.1-.4-1.3-.8-1.6-.4-2.3s1.6-1.4,2.5-.8Z"/>
  <path class="st1" d="M581.1,247.7c-3,.2-4.8.1-6.5-2l-.5,2.8c0,.4-1.2.7-1.5.4-1.9-1.4,3.2-7.7-2.6-4.9-1-2.2.3-3.9.4-5.6,2.1-.6,2.5,2.4,3.7,2.8,2.6,1.1,5.2,4.5,7.2,6.5Z"/>
  <path class="st1" d="M1073.3,286.9l-1.1-7.1c-.3-1.8-.1-3,.6-4.4s3.4-2.1,3.8-.8c1.5,5.1,1,9.5-3.4,12.3Z"/>
  <path class="st1" d="M1078.3,348.3c.6,3,.5,6.1-.3,9-.7,1.2-1.6,1.7-2.5,1.6s-1.3-.9-1.4-1.9l-.7-8.6c-.1-1.7,3.9-1.8,4.9,0Z"/>
  <path class="st1" d="M190.9,341.3c-.3,3.5-1.1,6.8,0,10.6-4.3-.7-5.6-4-4.7-7.8s.4-2.1.8-2.6,2.3-.9,3.9-.2Z"/>
  <path class="st1" d="M1080.8,445.6c-.8,1.1-1.5.8-2.2-.8-2.2-2-2.6-5.6-3.8-8.1l1-1.5c1.3,0,3.9.4,4.5,2.2,1,2.8.4,5.7.4,8.2Z"/>
  <path class="st1" d="M1076.2,293.5c3.2,2.5,1.3,9.9-3,10.4l-.7-6.2c-.2-1.7,1.6-5.9,3.7-4.2Z"/>
  <path class="st1" d="M1073.6,418.8l-.8,2.6c-.2.6-1.8.9-2.4.6s-2.9-10.4,1.6-10.5,2.3,5,1.5,7.3Z"/>
  <path class="st1" d="M191,370.4c-1.9.8-2.7-.8-3.3-2.4-1.7-3-2.1-6.7.3-9.6,4.3,2.6,3.5,7.6,3,12Z"/>
  <path class="st1" d="M1078.4,418.9c2.3,2,2.6,7.9.4,10.9-2.9-2.4-4-6.8-3.2-10s2.2-1.4,2.8-.8Z"/>
  <path class="st1" d="M652.3,361c-.4,1-.9,1.8-2.6,2.5.7.6,1.4.8,2.2,1.1-.9.5-2.1,1.1-2.6.9s-.9-1-1.8-2.7c-1.5,1.2-3.2,3.2-5.2,2.7-.1-1.2-.4-3.3-1.6-3.8s-2.7-.7-3.8-.8c5.7-2.3,8.7,2.7,15.2.2Z"/>
  <path class="st1" d="M194.2,379.1c-2.1-4-1.5-8.3.9-12.6,2.9,4.1,3.7,9.3-.9,12.6Z"/>
  <path class="st1" d="M358,489.2c.8,1.1,1.7,3.8.2,4.8-2.3,1.7-5.2.7-7.3,1,2.1-.7,5.7-1.8,4.4-5.3s-2-.4-2.6-.5-1.3-1.4-2.2-2.5c0-1,1.4-.9,2.1-.8,3.4.5,2.7,5.8,5.4,3.1Z"/>
  <path class="st1" d="M63,537.3c-3,3.7-7.7,5.9-12.3,3.6,2.7-3.4,7.5-2.9,10.1-5.2,1.9-1,2.8-.5,2.2,1.6Z"/>
  <path class="st1" d="M1071.7,394.7c1.8,1.3.9,5.6-.8,9.8-2.3-2.6-3.2-6.4-1.9-9.6s2.1-.7,2.7-.3Z"/>
  <path class="st1" d="M193.4,416.6l-1.9,6.4c-2.3-3-3.3-7-1.8-9.8.5-.8,3.5-.2,3.7.6s.4,1.3,0,2.8Z"/>
  <path class="st1" d="M193.2,331.5c.8-1.6,2.3-2.1,2.8-.2.7,3.2,1.3,7.3-.8,9.8-1.6.7-2.6-.7-2.2-2l.2-7.6Z"/>
  <path class="st1" d="M306.5,473.1l-2.6,8c-.6,1.8-4.3,1-5.1-.7s-.8-3.8-.5-5.5c.8,1.4.7,3.6,2.5,5.1,2.1-2.4,3-5.8,5.8-6.8Z"/>
  <path class="st1" d="M1079.4,454.1c2.4,1.5,2.3,4.9,2.2,9.1-3.8-.4-4.8-8-4.5-8.7s1.7-.8,2.3-.4Z"/>
  <path class="st1" d="M285.1,483.4c-.3-1.1-.8-2.1-1.8-2.9,1.9-1.5,1.1-2.9,1.2-4.8l.5-5.6c1.6.4,1.5,1.7,1.6,3.4l.8,9.2c-.7.6-1.9.5-2.4.7Z"/>
  <path class="st1" d="M194.9,458.4c-2.9-3-3.6-7.3-.8-11.1,2,3.3,2.8,6.8.8,11.1Z"/>
  <path class="st1" d="M196,355c1.1,1.8-.1,3.5-1.9,2-1.7-1.9-1.3-8.6,1.9-8.6s1.3,5.3,0,6.5Z"/>
  <path class="st1" d="M390.1,454.1c-.3,0-1.1,0-1.4-.3s-.5-1.2,0-2c1.1-1.5-.4-3-2-2l-1.9,2.5c-.4.5-1.2.7-2,.1.7-3.7,5.1-3.1,4.1-6.2,3.1,1.1,3.3,5,3.1,7.8Z"/>
  <path class="st1" d="M289.8,440.9c-.7,1.1-1.9,3.5.4,4.2s2.8-.1,3.4.9.3,2.1.6,2.9c.3,1.9-.5,2-1.4.4.6-1.1.2-2.5-.7-2.8s-2.2-.5-3.2-.5c-1,1.8-2.4,2.2-2.8,0-1.4,1.3-1.9.8-1-1-1,.9-2.6,1.4-3,0-1.8-.3-1.9-1,0-1.4,3.1.5,5.4-1,7.8-2.6Z"/>
  <path class="st1" d="M1240.3,353.9c2.1-.1.9,1.9-.5,2.8-3.8-1.1-7.1,1.4-9.4-.5s5.7-1.3,9.9-2.3Z"/>
  <path class="st1" d="M190.9,382.4c-.5,2,.6,4-1.1,5.7-3-2.1-3.8-5.3-2.9-8.3,2.1-1,3.7.5,4,2.6Z"/>
  <path class="st1" d="M1263.4,333.8c.3,2-3.5,3.2-5.7,1.9s.2-2.5,1.2-3.4,3.9-2.4,4.5,1.5Z"/>
  <path class="st1" d="M81.3,539.4c-2.2,3-4.9,4.5-8.2,4.1,1-3.6,4.3-5.3,8.2-4.1Z"/>
  <path class="st1" d="M1265.5,204.4c-2.8.7-5.5.3-8.6.2,2.3-1.8,5-2.4,7.9-3.2.8,0,1.7,1.4.7,3.1Z"/>
  <path class="st1" d="M294.1,448.9c1.7,4.2,7.7,5.6,5,10.1-.3-.3-1.2-.3-1.5-.9s0-1.3-.2-2c-.9-2.9-4.5-4-4.8-6.8l1.4-.4Z"/>
  <path class="st1" d="M188.8,403.9c-.6-2.3-.7-4.8.3-7,.6-.5,1-1.1,2.2-1.1l.7,8.2c.1,1.2-1.5,2.3-2,1.6l-1.2-1.7Z"/>
  <path class="st1" d="M190.9,382.4c-1.8,0-3.4-.9-4-2.6.3-1.2.5-2,1.7-2.7s2.3-1.4,3.5.2l-1.2,5.1Z"/>
  <path class="st1" d="M1072,453.1v-7c2.3-.2,3.9,1.8,3.7,3.2s-1.4,3.7-3.7,3.8Z"/>
  <path class="st1" d="M44.1,263.7c1-.8,3.3-.9,3.9-.2s0,2.8-.9,3.9-1.5,0-2.6-.1c-1.8-.3-2.4-2.1-.4-3.6Z"/>
  <path class="st1" d="M1280.6,357.2c-3.5,1.2-6.6,0-9.5-.6,3.1-1.9,6.5-3.2,9.5.6Z"/>
  <path class="st1" d="M1141.8,482.9c1.9.5,1.2,2,.1,2.6s-1.7.5-3.1-.4l-3.9-2.6c1.7-1.1,4-.2,6.9.5Z"/>
  <path class="st1" d="M198.4,445.1c-1.7-2.4-1.8-5.5-.6-7.9,3.6,1.9,2.3,6.1.6,7.9Z"/>
  <path class="st1" d="M44.1,534.5c0,2.6-3.7,3.1-8.2,2l7.6-3.1c.4-.1.6.6.6,1.1Z"/>
  <path class="st1" d="M42.2,197.9c-1.8,0-1.1-1.3,0-1.6,2.5-.5,6.1-1.5,7.9,1.7-3.3,1.4-5.6-.3-7.9-.2Z"/>
  <path class="st1" d="M33,235.1l5.1,2.9c-1,1.9-7.2.2-10.9-2.6,2.9-.3,4.2-.3,5.8-.3Z"/>
  <path class="st1" d="M741,201.2c-.8,1.3-1.9,2.2-2.8,2.6-1.7.7-3.6.4-4.5-2.1,2.5-.8,4.5-.8,7.3-.4Z"/>
  <path class="st1" d="M578.1,473.1c-.3-2.9-.5-6.3,0-9,.7.6,1.1,2.2.7,4.1,1.4.6,2,.8,2.5,1.4.9,1.1.7,3.2-1.3,3.4,0-1.1.2-1.9-.6-3-.4,1.1-.6,2.2-1.3,3.1Z"/>
  <path class="st1" d="M197.3,411.2c-1.6-3-1.6-6.1.9-8.8.6,3.3.6,5.7-.9,8.8Z"/>
  <path class="st1" d="M63,537.3c-.8-.4-1.4-.7-2.2-1.6,2-1.7,4-2.7,6.7-1-1.2,2.4-3.8,1.8-4.5,2.6Z"/>
  <path class="st1" d="M718.3,211.4c1.3-.7,2.2-.6,3.2.5s.4,1.6-.4,2.6-2.1.9-2.9.1-1.4-2.4,0-3.2Z"/>
  <path class="st1" d="M199,424l-.9.4c.3,1.9,0,3.1-1.1,3.7-1.1-2.1-1.9-5.2-1.4-7.1s3.2-1.2,3.3-.4c.2,1.2,0,2.4,0,3.5Z"/>
  <path class="st1" d="M1272.2,207.8c1-2.1,2-1.1,2.8-.4s1.6,1.6.6,2.7-1.4.9-2.1.9c-1.8,0-2.1-1.5-1.3-3.3Z"/>
  <path class="st1" d="M104.8,539.8c.1,1.7-4.4,3.9-6,2,.4-1.7,4.4-4.1,6-2Z"/>
  <path class="st1" d="M193.4,435.3c.2,2.5-1.2,2.9-2.4.7-.6-2.3-.5-4.8,1.8-6,.2,2,0,3.7.6,5.3Z"/>
  <path class="st1" d="M31.8,540.7l-4.5,2c-.8-1.6.6-3,1.7-4.2s2.4.8,2.8,2.1Z"/>
  <path class="st1" d="M1151,201.6c-1.5,1.8-4.8,2.5-7.6.4,2.4-1.5,4.3-1.3,7.6-.4Z"/>
  <path class="st1" d="M616.9,468.1c1.3,1.5.6,2-1,.7-.4-.7-1.9-1.3-1.9-2.5v-4.5c1.2,2,2.9,4,2.9,6.3Z"/>
  <path class="st1" d="M196,392.6c-1.7-2.1-1.7-5,0-7.2,1.4,2.3,1.7,4.3,0,7.2Z"/>
  <path class="st1" d="M1128.1,201.4c-2.5,1.7-5.4,2.3-8.1,1.2,2.8-1.7,5.1-2.1,8.1-1.2Z"/>
  <path class="st1" d="M1291.6,403.5c0,1.4-3,1.5-5,.2-.4-.9.5-1.5,1.2-1.8,1.4-.5,3.8-.2,3.9,1.5Z"/>
  <path class="st1" d="M111.6,227c-1.3-.5-.2-2.4,1.1-3.3s1.7-.2,2,.3c.5.7.6,2.2.3,2.6s-2,.9-3.3.4Z"/>
  <path class="st1" d="M1249.9,504.2c-.9-1-1.9-2.7-1.5-4,.2-.7,2.7,0,3,.8s.4,2.6-1.5,3.2Z"/>
  <path class="st1" d="M619.7,428c.4.1,1.1,0,1.5,0,1.2,2.8-.4,5.6-3.2,6.9l1.8-6.8Z"/>
  <path class="st1" d="M907.9,284.5c-1.2,1.7-4.1,2.6-6.6.4,2-1.3,3.6-1.4,6.6-.4Z"/>
  <path class="st1" d="M1256.3,323.8l-2.7.2c-1.3,0,.9-3.1,2.9-3.1s1-.1,1.4.6,0,2.1-1.5,2.2Z"/>
  <path class="st1" d="M199,424v4.5c0,2-1.1.9-2-.5l.3-7.1c.8,1.2.9,2.3,1.7,3.1Z"/>
  <path class="st1" d="M194,357c.9-.4,1.4-1.5,1.9-2,1.3.3,1.8,1.4,1.5,2.1-.5,1.3-.6,2.1-1.9,1.9s-1.1-1.5-1.5-2.1Z"/>
  <path class="st1" d="M824.6,258.5l1.7-4.3c1.7-1,2.4,1.9,1.7,3.1s-1.8,1.7-3.4,1.2Z"/>
  <path class="st1" d="M873.3,34.4c-.9,1.4-1.4,2.3-2,2.5-.9.3-1.9-.8-1.7-1.5s.8-1.7,2.4-1.7c.5-1.9,2.9-.6,1.4.7Z"/>
  <path class="st1" d="M1271.5,245.2c-3,.2-1.9-1.2-1.6-1.9.5-1.3,1.8-1.7,2.8-1.2s.9,3-1.2,3.2Z"/>
  <path class="st1" d="M863,225.6c-1.4.9-3.4,0-4.3-.3,0-2.7,1.5-2.2,2.4-1.9s2.5,1.6,1.8,2.2Z"/>
  <path class="st1" d="M524.9,499.4c0,.9-2.9,2.6-3.9,2.1s-1-1.4-.2-2.2,1-1.4,2.6-.9,1.5.5,1.5.9Z"/>
  <path class="st1" d="M1244.9,290.5c-1.8,1.2-2.9,1.8-4.9,1.3.4-.9,1-2.5,1.6-2.7s2.6,1.1,3.3,1.4Z"/>
  <path class="st1" d="M842.1,244.3c-1.5,1.6-3.1,2.4-5.1,3.8,0-2.8,2.3-4.8,5.1-3.8Z"/>
  <path class="st1" d="M1078,357.3l.3-9c1.3,2.5,1.3,6.5-.3,9Z"/>
  <path class="st1" d="M949.8,256.9c-1.4-.3-1.9-1.8-1.7-2.3s1-1.5,1.5-1.3,1.2.9,1.3,1.5.3,2.5-1.1,2.1Z"/>
  <path class="st1" d="M831.9,278.4c.2.4-3.1,2.8-4.3,2.5s-.8-.9-.5-1.4,4.3-2.4,4.9-1.1Z"/>
  <path class="st1" d="M1284.9,297.5c-.9,1.5-3.3,2.6-5.5.5,1.4-1.3,2.8-1.6,5.5-.5Z"/>
  <path class="st1" d="M931.4,303.3c.6-.2,1.4.8,1.6,1.3s.3,2.1-.5,2.3-1.6-.6-2-.9c-.8-.7-.6-2.2,1-2.7Z"/>
  <path class="st1" d="M739.2,193.6c.8-1.4,2-.2,2.3.3.5.8.7,1.3,0,2.1s-1,.8-1.6.4c-.8-.5-1.6-1.5-.8-2.9Z"/>
  <path class="st1" d="M288.5,537.3c1.1-.6,2,.1,1.6,1.2s-.5,1.2-1.1,2-1.2.2-1.5-.4c-.6-1.2-.3-2,1-2.7Z"/>
  <path class="st1" d="M191,436c.9,0,1.7-.3,2.4-.7.3.9.9,2,.6,3.2s-2.1.9-2.4-.4l-.5-2.1Z"/>
  <path class="st1" d="M133.2,406.6c1.3-1,2.4-.2,2,.9s0,1.3-1,2-1.1.4-1.6-.3-.5-1.7.7-2.6Z"/>
  <path class="st1" d="M1291.9,391.9c-.5,2.1-4.6.6-4.2-.7.7-2,4.4-.4,4.2.7Z"/>
  <path class="st1" d="M779.2,205.4c2.9-.2,1.5,1.4,1.2,1.9-.7,1.2-3.1,1.8-2.7-.7-1.7-1.3.3-2.3,1.5-1.2Z"/>
  <path class="st1" d="M53.5,290.5c.4-1,2.1-.6,2.5-.2s1.7.7.7,1.8-1.3.7-2,.5-1.8-.5-1.2-2.1Z"/>
  <path class="st1" d="M952,369.3l-2.4.8c-.9.3-1.7-.2-1.1-1.1s2.7-2,3.6-1.5,1.3,1.4,0,1.9Z"/>
  <path class="st1" d="M1286.8,310.5c-.9,1.2-3.9.5-3.8-1.3s1.1-1,1.5-.9c.5.1,1.4.5,2.4,2.3Z"/>
  <path class="st1" d="M825.6,130.6c-1-.3-1.4-4.4.6-4.6s1.2,3.1-.6,4.6Z"/>
  <path class="st1" d="M38.1,237.9c-2.1.3-5-.7-5.1-2.9,2,0,4.2,1.1,5.1,2.9Z"/>
  <path class="st1" d="M30,200.9c-.6,1.3-2.2,1-3.1.2-.3-.6-1-1.3-1-2.2v-1.7c1.4.5,3.2,2.4,4.1,3.7Z"/>
  <path class="st1" d="M865.9,257.7c-1.7.5-4.3,1.2-6.5-.8,2.2-1.3,3.6-.3,6.5.8Z"/>
  <path class="st1" d="M489.5,341.1c-1-1.2,2.4-3.3,3.5-2.5.4,1.6-.6,3.4-3.5,2.5Z"/>
  <path class="st1" d="M34.1,224.3c-1.2.2-1.8.2-2.1.2s-.7-.7-.7-1c0-.5.8-1.4,1.6-1.3s1.2.4,1.6.7.6,1.2-.4,1.4Z"/>
  <path class="st1" d="M224.4,198.9c1.5,1.3-.1,1.1-3.8,1.3-.9-.9,0-1.4.5-1.8.9-.6,2.4-.8,3.3.5Z"/>
  <path class="st1" d="M1239.3,347.8c1.4-.2,2.1,1.3.2,1.2-.8.8-1.7,1.1-2.1.9-.5-.3-.4-1.1-.5-1.5-.2-.8,1-2.7,2.4-.6Z"/>
  <path class="st1" d="M536.2,539.2c.8-.5,1.9-.1,2.2.8s0,1-.5,1.6-1.2.8-2,0-1.3-1.4.3-2.4Z"/>
  <path class="st1" d="M188.8,403.9c-1.4-2-1.4-5.5.3-7l-.3,7Z"/>
  <path class="st1" d="M204.1,198.5c-.8.4-1.9,1-2.7,1.4s-2.2-.7-2.4-1.7c1.5-.2,2.2-.6,5.1.3Z"/>
  <path class="st1" d="M591.1,200.8c.9-1.8,2.1-.4,2.5,0,.6.8.7,1.6-.1,2.1s-3-.9-2.4-2.1Z"/>
  <path class="st1" d="M1137.2,353.7c.3-1.4,2.2-1.1,2.6-.2s.3,1.1-.7,2-2.4,0-1.9-1.9Z"/>
  <path class="st1" d="M755.1,205.1c-.5.3-2.2-1.3-2.1-2.1.2-1.5,1.7-1.3,2.2-.6s1.8,1.6-.1,2.7Z"/>
  <path class="st1" d="M162.2,355.3c.6-.4,1.3-.4,2.2-.3s1,1.6.1,1.9-1.5.6-2.1.9-1-2.1-.2-2.5Z"/>
  <path class="st1" d="M64.8,197.6c-.2.9-3.8,1-3.8-.5s3.4-1.6,3.8.5Z"/>
  <path class="st1" d="M1286.8,364.5c.6,1.9-1.5,2-2.2,1.5s-1.3-.9-1.6-1.7c1.1-.6,3.4-.5,3.7.2Z"/>
  <path class="st1" d="M880.6,266.8c-.9,1.8-1.9.7-2.2.3-.5-.7.2-2.2,1.8-2,1.9-.8,2.4,1.4.4,1.7Z"/>
  <path class="st1" d="M849.3,265.3c.8-.2,1,.6,1.2.9.4.4.7,1.7-.1,1.9s-1.9-.1-2.3-.6,0-1.8,1.1-2.1Z"/>
  <path class="st1" d="M789.5,340c-.5,1-1.7,1.2-2,.9-.5-.4-.6-1.5.3-2.5s3.3.2,1.6,1.6Z"/>
  <path class="st1" d="M201,460.1c-1.1-.1-1.6-2.8-.7-4,1.3.2,2.9,2.6.7,4Z"/>
  <path class="st1" d="M554.8,462.1c-1.8-1.5-1.8-3.4-1-5.2,1.2,1.5,1.6,3.6,1,5.2Z"/>
  <path class="st1" d="M705.4,360.8c-.9-.2-1-3.8.5-3.8s1.6,3.4-.5,3.8Z"/>
  <path class="st1" d="M1190.9,308.3c-1.3.5-2,.8-2.4.6s-.8-.9-.5-1.5,1.2-.5,1.6-.7c.8-.9,1-.6,1.5-.3.8.4,1.3,1.3-.1,1.9Z"/>
  <path class="st1" d="M31,191.9c1,.8,1.8,1.9,2,3.2-1.3-.7-2.8-.9-3.8-2.1.4-.6,1.1-.9,1.8-1.1Z"/>
  <path class="st1" d="M1137.9,513.7c-.8.6-2.2.4-2.9-.1s-1.5-1.5-.6-2.4c1.7.8,3.1,1.3,3.5,2.6Z"/>
  <path class="st1" d="M1280.2,330.8c.3-1.6,2.4-1.3,3-.4s0,1.3-1,2.2-2.4.2-2-1.7Z"/>
  <path class="st1" d="M33.5,252.4c.3-.2,1.5-.2,1.8,0,.4.3.5,1.4.3,2-.3.9-1.4.5-1.8.2-.7-.4-1.6-1.3-.2-2.1Z"/>
  <path class="st1" d="M38,231c.6.3.6.6,0,1,1.2,1.2.7,1.7-1,1h-2c-1,0-1.3-.3-1.1-1,1.1-1.1,2.6-1.3,4.1-1Z"/>
  <path class="st1" d="M948,243.1c-1.1-.2-1.6-2.7-.7-4,1.3.2,2.9,2.6.7,4Z"/>
  <path class="st1" d="M196,331.3c-.9,0-1.9.4-2.8.2,0-1,.4-1.5.7-2.1.5-1,1.9-1.2,1.7.2s.2.9.4,1.7Z"/>
  <path class="st1" d="M1239.8,356.7l.5-2.8c.7-.2,1.7,0,2.6.4-.5,1.1-2,2.7-3.2,2.4Z"/>
  <path class="st1" d="M30,200.9c-.1,1.4-1.7,2.5-2.5,2.1s-.4-1.5-.6-2c.6-1.3,2.2-.5,3.1-.2Z"/>
  <path class="st1" d="M37,233l1-1c.5-1.6.9-2.5,2-1,0,.8.4,2.3-.5,2.9s-2.2-.1-2.5-1Z"/>
  <path class="st1" d="M50.3,468.3c.9-.3,2,2.4,1.2,2.8s-1.7-.5-2.1-1-.3-1.4.9-1.8Z"/>
  <path class="st1" d="M1272.7,465.5c0,1-3.3.8-3.5-1,0-1,3.2-.8,3.5,1Z"/>
  <path class="st1" d="M1289.2,327.6c-1.5.2-3.5-.7-4.3-2.4,1.5-.1,2.9,0,4.3,2.4Z"/>
  <path class="st1" d="M610.3,518.2c.5-.2,1.1.4,1.3.7.5.8-.3,1.2-.9,1.5s-1.1,1.1-1.7,0,.7-1.9,1.3-2.2Z"/>
  <path class="st1" d="M1271.3,513.9c.7-1.5,1.8-.8,2.3,0s.5,1.1-.3,1.7-2.5-.6-2-1.7Z"/>
  <path class="st1" d="M699.8,366l-3.2-1.9c.7-1.7,1.8-1.2,2.4-.6s1.4,1.1.8,2.5Z"/>
  <path class="st1" d="M26.9,513.9c-.9,2-3.1,1.1-2.4,0,.3-2.8,3.2-2.2,2.4,0Z"/>
  <path class="st1" d="M944.3,231c-.4-1.5-.6-1.9-1.8-3.3.9-.9,2.3,0,2.9.4s-.6,2.6-1.1,2.9Z"/>
  <path class="st1" d="M1196.7,310.5c0,1-3.2.8-3.5-1,0-1,3.2-.8,3.5,1Z"/>
  <path class="st1" d="M669.2,334.2c.2-.3,1.7-.3,2.2-.2s1,.7.6,1.5-1.1.5-1.5.6c-.9.2-2.1-.7-1.2-1.9Z"/>
  <path class="st1" d="M1080.3,533.2c.8-.3,1.8,2.2,1.1,2.8s-1.7-.5-2-1-.4-1.3.9-1.8Z"/>
  <path class="st1" d="M109.2,536.2c.3-.4,1.7-.4,2.2-.2s1,.7.6,1.5-1.1.5-1.5.6c-.9.2-2.1-.7-1.2-1.8Z"/>
  <path class="st1" d="M330,426c-1.4,1.6-4.6,1.6-6,0h6Z"/>
  <path class="st1" d="M902.9,218.8c-2,.6-3.6-.4-5-1.5,2.2-.6,3.3,0,5,1.5Z"/>
  <path class="st1" d="M39.2,217.2c.3-.4,1.7-.3,2.2-.2s1,.7.6,1.5-1.1.5-1.5.6c-1.1.3-2.1-.7-1.3-1.9Z"/>
  <path class="st1" d="M819.2,263.2c.3-.3,1.7-.3,2.2-.2s1,.7.6,1.5-1.1.5-1.5.6c-.8.2-2.1-.6-1.2-1.9Z"/>
  <path class="st1" d="M852.3,49.3c.6,0,2.1,2.5,1.2,2.7-1.4.4-2.2-.1-2.4-.6s.6-2.1,1.3-2.1Z"/>
  <path class="st1" d="M891.3,276.2c.6-.2,1.1.6,1.3.8.6.5,0,1.4-.5,1.5s-1.7.3-2-.1.3-1.9,1.2-2.2Z"/>
  <path class="st1" d="M928.8,279l-2.4.9c-.4.1-.7-1-.5-1.4.5-.8,1.3-.5,1.5-.7.9-.8,1-.4,1.5-.3,1.1.3.9,1.1-.2,1.5Z"/>
  <path class="st1" d="M1102.7,201.4c-1.5.8-3.1,1.1-5.1,1.2.7-1.7,2.2-2.5,5.1-1.2Z"/>
  <path class="st1" d="M958.4,487.2l-1.3,2.4c-.4.8-1.8.7-2.4-.7,1-.3,1.9-2.4,3.7-1.7Z"/>
  <path class="st1" d="M816.2,283.3c.3-.4,1.7-.4,2.2-.3s1,.7.6,1.5-1.1.5-1.5.6c-.7.2-2-.8-1.2-1.8Z"/>
  <path class="st1" d="M513.1,394.7c.4-1.4,2.9-.8,2.7-.3l-.9,2.1c-.2.6-2.2,0-1.8-1.8Z"/>
  <path class="st1" d="M583,541.6c-1.3,1.3-2.2-.3-1.6-.7l3-1.7c1.2.7.5,2.2-1.4,2.4Z"/>
  <path class="st1" d="M1099.6,521.2c.4.5-.7,1.7-1.2,1.7s-1.7-.2-2.4-1.6c.4-.4,1.8-.8,3.6-.2Z"/>
  <path class="st1" d="M803.2,213.2c.7-.6,1.9,0,1.6.3-.4.5-.9,1.5-.9,2s-1.2.3-1.5-.5-.1-1.1.8-1.9Z"/>
  <path class="st1" d="M796.7,255.3c-.3-.8-.3-2.5,0-3.6,1.8.4,2.5,2.6,0,3.6Z"/>
  <path class="st1" d="M358,488.1c-.5,0-.8-.4-1.1-.5-.6-.3-1.2-1.1-.5-1.6s1.2-.6,1.9-.8c.2,1,.2,2-.3,2.9Z"/>
  <path class="st1" d="M1054.2,201.5c1.5-.6,2.8-1.2,4.3-1-.9,2.2-3,2-4.3,1Z"/>
  <path class="st1" d="M21.2,201.2c.9-1,2.8,1,2.6,1.3-.3.8-1.1.5-1.4.6-1.1.2-2.1-.8-1.2-1.8Z"/>
  <path class="st1" d="M115.1,197.6c-1.5.7-3.1.4-4.6.4-.3-.3-.5-.5-.5-.5,1.7-.8,4.2-.8,5.1.2Z"/>
  <path class="st1" d="M52.2,353.2c.3-.3,1.4-.4,2.2-.2s.6.6,0,1-.8.8-1.2,1c-.9.4-2.1-.8-1.1-1.8Z"/>
  <path class="st1" d="M19.8,497.4c.8-.9,1.9-.5,2.2,0s0,1.6-1.4,1.7-2.2-.1-.8-1.7Z"/>
  <path class="st1" d="M1277.2,341.2c.8-1,2.7,1,2.6,1.3-.4.9-1.1.5-1.5.6-.8.2-2.1-.7-1.1-1.9Z"/>
  <path class="st1" d="M199,428.5c0,.5.1,2.2-.5,2.4s-1.2-1.6-1.5-2.9l2,.5Z"/>
  <path class="st1" d="M566.8,501.9c-1.6.4-3.2-.9-2.6-3,1,.6,1.9,1.1,2.6,3Z"/>
  <path class="st1" d="M171.3,225.8c-.6-.9-.5-2.4-.2-3.8,1.3.2,1,1.6,1.3,1.9.8.7-.5,2.1-1.2,1.9Z"/>
  <path class="st1" d="M558.6,502.2c.4,0,.8.8.4,1.3s-1,1.4-1.5,1.3-1.8-1.2-1.3-1.4l2.4-1.2Z"/>
  <path class="st1" d="M809.3,336.2c.3-.3,1.3-.4,2.2-.2s.6.6,0,1-.8.8-1.2,1c-.8.4-2.2-.7-1.1-1.8Z"/>
  <path class="st1" d="M40,231l-2,1v-1c0-.7.1-1.7.6-2s1.4.2,1.4.5v1.5Z"/>
  <path class="st1" d="M33.9,232l1.1,1c-1.4,0-3,.7-4.6-1.1,1.6-1.2,2.6,0,3.6.2Z"/>
  <path class="st1" d="M937,236.2c-.2,1.3-1.5.3-1.4,0s-1.1,1-1.3.7c-.4-.5-.2-1.5.3-1.8.9-.5,2.7-.1,2.4,1.2Z"/>
  <path class="st1" d="M25.3,528.2c.3-.3,1.3-.4,2.2-.2s.6.6.1,1-.8.8-1.2.9c-1,.4-2.1-.8-1.1-1.8Z"/>
  <path class="st1" d="M1216.2,532.2c.8-1,2.8.9,2.6,1.3-.3.7-1.1.5-1.5.6-.9.2-2.1-.8-1.1-1.9Z"/>
  <path class="st1" d="M190.1,314.9c-1.8,0-3.6-.2-4.2-2,1.6.1,3.2.7,4.2,2Z"/>
  <path class="st1" d="M1267.3,308.3c.8-.2,1,.6,1.3.7.5.2.4,2.1,0,1.9-.7-.4-1.6-.9-2.1-.9s-.2-1.4.8-1.7Z"/>
  <path class="st1" d="M1146.2,533.2c.8-1,2.7,1,2.6,1.3-.4,1-1.1.5-1.5.6-.8.2-2.1-.7-1.1-1.9Z"/>
  <path class="st1" d="M36.9,191.1c-.8-.7-1.1-1.9-.9-3.1.5.2,1.5-.3,2,.6s-.5,2-1,2.5Z"/>
  <path class="st1" d="M849.3,257.2c.3-.3,1.3-.4,2.2-.2s.6.6.1,1-.8.8-1.2,1c-.8.3-2.1-.8-1.1-1.8Z"/>
  <path class="st1" d="M856.2,298.2c.9-1,2.8,1,2.6,1.3-.4.8-1.1.5-1.5.6-.8.2-2.1-.8-1.1-1.9Z"/>
  <path class="st1" d="M859.2,269.6c-1.3,0-3-.6-4.2-1.1,1.1-.9,3.3-1.4,4.2,1.1Z"/>
  <path class="st1" d="M191,370.4c-.1,1-2.5,1.1-2.9.1s0-1.9-.4-2.5c1,1.1,2.1,1.8,3.3,2.4Z"/>
  <path class="st1" d="M1080.8,445.6c0,.7-.5,2-1.3,2.3s-1.3-.8-1.3-1.3.2-1.2.4-1.7c.4-.7.9-.7,1.3-.2l.9,1Z"/>
  <path class="st1" d="M192.2,297c-.3-.4-1-1.1-1.4-1.1.7-.9,1.1-2,1.1-3.1h1.1c.3,1.6-.4,2.9-.8,4.1Z"/>
  <path class="st1" d="M249.1,199.6c-1.5.7-3.1.4-4.6.4-.3-.3-.5-.5-.5-.5,1.7-.8,4.2-.8,5.1.2Z"/>
  <path class="st1" d="M796.8,449.5c-1.1.6-1.8,1.2-2.4,1.3-.8.2-2-2.1-1.3-2.4,1.5-.6,3,.3,3.6,1.1Z"/>
  <path class="st1" d="M832.3,488.3c0,2.5-2.7,1.4-2.3-.6-.2-2.6,2.9-1.9,2.3.6Z"/>
  <path class="st1" d="M281,445c1.6.5,2.3.8,1,2,.9.3.9.7,0,1,1,.8,2.3,1.1,4,1,.5.3.5.6,0,1-2.5,1.9-5.4,2-8,.5,3-.2,2-2.7,0-2.4-1.1,0-1.8-.4-2.1-.7-.5-.5.2-1,.2-1.3,1.4.2,2.7-.1,3.8-.9,0-1,.4-1,.9-.1Z"/>
  <path class="st1" d="M328,437.5l-2.7.3c-1.1.1-1-1-1.1-1.4-.3-.9.8-2.4,1.5-2.1,1.5.8,2.4,2.1,2.4,3.2Z"/>
  <path class="st1" d="M276,482.7c-.1-1.7-1.2-3.2-1-3.8.4-1.2,2.5-.7,2.8.7s-.4,3.1-1.8,3.1Z"/>
  <path class="st1" d="M288.8,446c0,1.8-1.5,2.9-2.8,4v-1c-.9-.3-.9-.6,0-1-2.7-.3-2.5-1.2,0-2h2.8Z"/>
  <path class="st0" d="M950.9,479.3c-.6,1.7-2.4,3.9-4,4.7-6.4,4.4-12.3,6.6-19.9,2.9-7.5-3.7-6.2-12-9.7-16.4,4-8.7-.4-18.2,1.1-21.2l3.7-7.4c4.4-4.5,12.9-6.9,16.6-4.7l7.5,4.6c.2,1.5,0,4,1.7,5,4.3,2.4,2.9,6.6,3.4,10,.7,5.5,1.5,8.9.1,14.3s1.2,6.2-.5,8.3Z"/>
  <path class="st1" d="M946.9,484c0-.8-.2-2.8.9-3.6s2.1-.9,3.2-1.1l4.2,5.5c-2.6,1.3-6.5,1.1-8.2-.8Z"/>
  <path class="st0" d="M882.7,458.1c-.4,10.6,2.6,18.2-5.6,24.3s-8.8,8.1-14.9,5c-3.9-2,2.5-10.6-2.9-15.7,2-6.4,2.9-14.1-.5-20.5,2.4-5.2-1.7-7.4,2-12.7s3.9-.7,5.9-.6c5.7.2,7.4,4.6,13.2,11s3,4.9,2.8,9.3Z"/>
  <path class="st1" d="M854.5,449.8c-3.5,0,.8-5-1.7-9.9s.2-1.7,1.1-2.4,2,.3,1.1,1.3l.8,9.2c.1,1.6-.3,1.8-1.4,1.8Z"/>
  <path class="st1" d="M889.5,452.3c0-.4,1.7-.5,2-.3.5.4.7,1.3.5,2.5s-1,.9-1.5.5-.9-1.4-1-2.7Z"/>
  <path class="st0" d="M737.3,485.9c-2-1-3.7-2.8-5.3-4.6,1.4-5.1-2-7.2-1.6-11.9-1.1-.8-2.2-2-2.6-3.1-1.8-2.6-1.8-7.7,1.3-9.2-.5-6.6,2.1-16.6,8.3-19s5.5-4.2,8.1-2.7,3.3,2.9,6.2,2.9,5.1,2.8,4.9,7.1c1.9.5,6.4,2.3,6.1,4.5-2.6,9.8,8.4,10.7.2,15.5,1.2,7.9-1.8,16.4-8.6,20.6s-13,1.9-17-.2Z"/>
  <path class="st1" d="M729.1,457.1c.2,3.1-.7,6.1-1.3,9.2-.4-1.1-1.9-2-3.2-2.6.2-3.3.2-6.1-.6-9.6l5.1,3.1Z"/>
  <path class="st0" d="M550.9,294.7c-2.6-1.3-6-2.1-7.6-4s-1.6-5.3-3.7-7.3-1.9-3.6-1.5-5.7,2.1-3,4.4-4.4c-4.3-4.8-2.2-10.8-1.3-17.1s.4-6.4,2.2-8.4c2.8-3.1,5.6-3.7,9.3-4.5s4.1-1.5,7.3.6,5.1,2,5.2,6,.5,2,1,2.4c.7.7,2.3,1.1,3.9.5,4.1,2.4,4.7,7.5,2.7,11.8,3.7,3.2,4.2,7.8,1.1,11.3.7,5.2-1.4,9.4-5.1,12.8-4,5.3-11.3,9.2-17.9,5.9Z"/>
  <path class="st1" d="M534.1,269.3c.3.7,1.9.9,1.8,1.2l-.5,2.2c-.1.5-1.3-1.6-2.8,0,0-2.6-1.1-4.5.2-7.2l1.3,3.8Z"/>
  <path class="st0" d="M451.8,459.2c1,2.5-.6,6.1-.2,9,.6,4.6,0,9.6-4.6,11.5l-8.9,6.4c-2.6,1.9-5.4,1.4-7.6-.8s-.7-4.3-.2-6.7c-.8-1.3-3.6-3-2.5-5.5-2-1.7-1-8.3,1.7-8.8.2-3-.3-4.9-1-8.4s2.7-8.1-.8-11.1c-2.5-3-3.1-6.8.1-9.7,3.1-1.7,6.9-1.7,10.4-.3s4.3,4.2,5.3,7.3c1.2.6,3.8.9,4,1.8l.6,3.9c1.4,2.2,4.1,4.1,3.4,7.1s-.5,2.8,0,4.2Z"/>
  <path class="st1" d="M429.6,464.2c-.1,2.7-.4,6-1.7,8.8l-2.2,2.5c-3.9-3.5-1.8-7-.2-9.7-.7-1.3-1.8-2.9-1.1-4.8-2,.5-3.1,1-3.7.5-1.2-1-1.1-2.4-.9-3.2.4-1.5,1.9-1.8,2.7-2.2s1.9.2,1.1,1.1l-1.7,2.1,6.5,2c-1.3.5-2.1,1.4-2.3,2.1s2.4,1.4,3.6.8Z"/>
  <path class="st1" d="M427.9,444.8c-4.2,1.8,0,4.3-2.6,6.9.9-2.7-1.3-3.7-2.1-1.4-.9.7-1.3-.2-.9-1.1,2.1-2.6.4-3.5,0-5.5-.6-3.5,3.1-7.2,5.7-8.6-1.7,4.6,2.3,8.6-.1,9.7Z"/>
  <path class="st1" d="M460.3,456.9l-6-5.6c2.7-1.5,3.7-.6,4.5.4s2.5,2.9,1.5,5.1Z"/>
  <path class="st1" d="M453.5,440.4c.6,0,.8,1.2,1.1,1.6.7.9-.4,1.9-1.1,2-1.4.2-1.6-.7-2-2.1s.3-1.4,2-1.5Z"/>
  <path class="st1" d="M444.2,489.2c.9-1.1,2.9,1.2,2.8,1.2-.5.9-1.2.5-1.7.6-1,.2-2-.8-1.1-1.8Z"/>
  <path class="st0" d="M368.1,469.9c-.8-.5-1.9-1.5-3.1-1.6l-.6-3.8c-.2-1,2.4-1.8,2.8-3.3l3.2-10.9c.8-2.6,7.5.2,7.5,2.4.3,10.3,5.9,10.4,5.4,13.8s-1.5,3.3-3.6,3.3l-11.6.2Z"/>
  <path class="st1" d="M374.1,440.9c.6,1.9,3.1,1.3,4.1,1.5.2,3.4-2.6,3.6-4.4,3.5s-3.4-3.1-1.7-4.5,2.2-1.4,2.5-2.3,0-1.7-.6-3.2l4.2.9c1.1.2.2,2.1-.3,2.7s-1.3.2-3.9,1.4Z"/>
  <path class="st1" d="M674.4,486.2c-.3-1.1,0-2.3.7-3.2l8.9,7.1c.2,1.1-2.4,2-3.2,1.8s-.8-2.7-1.5-2.6c-1.3,0-2.7.4-3.9-.3s-1.4-1.2-.9-2.7Z"/>
  <path class="st1" d="M675.8,482.1c-.1-2.7-.5-5.5.2-8.3.9,0,1.7.3,1.9.9.4,1.8-.6,3.8-.4,6.4s-1,1.2-1.7,1Z"/>
  <path class="st1" d="M585,439.5c-3.5,1.3-1.9,4.5-3.4,8.5-1.8-3-1.7-5.6.3-7.9-1.2-1.1-2-2-2.4-3.1s.1-2.7,1.3-3.9c1.1,2.7,2.1,4.8,4.3,6.4Z"/>
  <path class="st1" d="M587.9,457.1c-1.8-.4-2.3-2-1.9-3.8.7-.2,1.8-.1,2.6.7s-.3,2.1-.6,3.1Z"/>
  <path class="st1" d="M621.6,464l-1.5,7.7c-.3,2.2-1.4,2.3-2.1.2-1.1-.7-1.5-2.1-2.1-3.1l1-.7c1.2.4,2.5-.4,2.6-1.6.2-2.8-2.4-5.9-2.3-6.1.3-.7,2-.8,2.4-.4.7.9-.3,3.6,2.1,4Z"/>
  <path class="st1" d="M593.8,441.8c1.2.4.9,1.2,1,1.6s-.5,1.4-1.3,1.4c-1.6-.2-3.5-.8-5.4-1.6,1.3-1.8,3.8-2,5.7-1.3Z"/>
  <path class="st1" d="M614.2,476l.8,4.8-2.8-1c-.3-.7-1.3-2.4-.9-3.1s2.3-.6,2.9-.7Z"/>
  <path class="st1" d="M616.3,454.2c.9-.5,1.9,0,1.7,1.2s1.1,1.3.6,1.4-2.3.1-2.8-.1-.9-1.7.5-2.4Z"/>
  <path class="st1" d="M624.6,478.1c1.7,2.3-6.9,1.2-3.3,6.4-1.1.9-2.1-.6-2.9-1.4s-.5-2.3-.5-4.2v-2.3c0-.4.7-.8,1.2-.3s.6.9.9,1.8c.4,1.3,1.7,1.2,2.3.2s1-1.1,1.3-1.1.9.7,1.1.9Z"/>
  <path class="st1" d="M620.1,471.7c-.2,1.2.6,3.6-2,3.6.3-1.2.5-2.9-.1-3.4l2.1-.2Z"/>
  <path class="st1" d="M555.5,441.3c2.8,1,7.7,6.6,8.1,10.6-3.1-2.9-7-5.4-8.1-10.6Z"/>
  <path class="st1" d="M590.1,490.1c-.7,1.2-2.7.4-3.2-.5-.7-1.4-1.1-2.8,0-4.1l3.2,4.6Z"/>
  <path class="st1" d="M563,484.1l.5,2.5c.2.7-.6,1.3-1.4,1.2l-3-5.7c2.1-.6,2.9.6,3.9,1.9Z"/>
  <path class="st1" d="M281.9,443.6v1.4c-.2.9-.6.9-.9,0-.3,0-.7,0-.9.1-.5-.5-.8-.9-2.1-1.6.3-.5,1.7-.9,2.4-1.1s1.2.6,1.6,1.1Z"/>
  <path class="st1" d="M286,446v2c-.7,1.5-3.4,1.8-4,0,0-.3,0-.7,0-1,.2-.9,1.2-1.6,3-2l1,1Z"/>
  <path class="st1" d="M285,445c-.3,1.5-1.7,1.5-3,2-.5-.6-.9-1.3-1-2h1s3,0,3,0Z"/>
  <path class="st1" d="M286,448v1c-.6.8-1.6,1.4-2.5,1.3s-1.8-1.2-1.5-2.3h4Z"/>
</svg>